<?xml version="1.0" encoding="UTF-8"?>
<svg id="Layer_1" data-name="Layer 1" xmlns="http://www.w3.org/2000/svg" viewBox="0 0 512 512">
  <defs>
    <style>
      .cls-1 {
        fill: #b1b1b2;
      }

      .cls-2 {
        fill: #45454d;
      }

      .cls-3 {
        fill: #c7d0dc;
      }

      .cls-4 {
        fill: #f5b838;
      }

      .cls-5 {
        fill: #5b5a58;
      }

      .cls-6 {
        fill: #d0d3db;
      }

      .cls-7 {
        fill: #64636a;
      }

      .cls-8 {
        fill: #dcdfe6;
      }

      .cls-9 {
        fill: #cdd3de;
      }

      .cls-10 {
        fill: #75767b;
      }

      .cls-11 {
        fill: #fafafb;
      }

      .cls-12 {
        fill: #c0c8d1;
      }

      .cls-13 {
        fill: #d1d9e3;
      }

      .cls-14 {
        fill: #d3d0d5;
      }

      .cls-15 {
        fill: #ecde89;
      }

      .cls-16 {
        fill: #becad6;
      }

      .cls-17 {
        fill: #010101;
      }

      .cls-18 {
        fill: #d4dde5;
      }

      .cls-19 {
        fill: #bfcad8;
      }

      .cls-20 {
        fill: #010000;
      }

      .cls-21 {
        fill: #d0d9e7;
      }

      .cls-22 {
        fill: #cdd6e0;
      }

      .cls-23 {
        fill: #c1c6cb;
      }

      .cls-24 {
        fill: #616166;
      }

      .cls-25 {
        fill: #c4c3c8;
      }

      .cls-26 {
        fill: #b3b6bc;
      }

      .cls-27 {
        fill: #f69e87;
      }

      .cls-28 {
        fill: #5c5f66;
      }

      .cls-29 {
        fill: #97979d;
      }

      .cls-30 {
        fill: #777879;
      }

      .cls-31 {
        fill: #040504;
      }

      .cls-32 {
        fill: #8a8b8d;
      }

      .cls-33 {
        fill: #c8ced7;
      }

      .cls-34 {
        fill: #595a61;
      }

      .cls-35 {
        fill: #737376;
      }

      .cls-36 {
        fill: #ced5dc;
      }

      .cls-37 {
        fill: #2d2b30;
      }

      .cls-38 {
        fill: #f2bc35;
      }

      .cls-39 {
        fill: #54555c;
      }

      .cls-40 {
        fill: #29282f;
      }

      .cls-41 {
        fill: #74787d;
      }

      .cls-42 {
        fill: #fde46d;
      }

      .cls-43 {
        fill: #fbc132;
      }

      .cls-44 {
        fill: #9b9ca1;
      }

      .cls-45 {
        fill: #c8c9cf;
      }

      .cls-46 {
        fill: #6e6e73;
      }

      .cls-47 {
        fill: #4f4f57;
      }

      .cls-48 {
        fill: #69686d;
      }

      .cls-49 {
        fill: #dcdbe0;
      }

      .cls-50 {
        fill: #5d5d64;
      }

      .cls-51 {
        fill: #787780;
      }

      .cls-52 {
        fill: #f9bb31;
      }

      .cls-53 {
        fill: #767577;
      }

      .cls-54 {
        fill: #5f5f63;
      }

      .cls-55 {
        fill: #e8d367;
      }

      .cls-56 {
        fill: #e6b3a2;
      }

      .cls-57 {
        fill: #f4f4f4;
      }

      .cls-58 {
        fill: #cfd6e1;
      }

      .cls-59 {
        fill: #f0ba3b;
      }

      .cls-60 {
        fill: #6d7276;
      }

      .cls-61 {
        fill: #111112;
      }

      .cls-62 {
        fill: #fc9e8b;
      }

      .cls-63 {
        fill: #e1e2e3;
      }

      .cls-64 {
        fill: #f9e1a4;
      }

      .cls-65 {
        fill: #d1d8e1;
      }

      .cls-66 {
        fill: #bec9d5;
      }

      .cls-67 {
        fill: #393840;
      }

      .cls-68 {
        fill: #e7e0be;
      }

      .cls-69 {
        fill: #4e4e53;
      }

      .cls-70 {
        fill: #9d9c9b;
      }

      .cls-71 {
        fill: #6b6972;
      }

      .cls-72 {
        fill: #5d5c63;
      }

      .cls-73 {
        fill: #8c8c8d;
      }

      .cls-74 {
        fill: #64656a;
      }

      .cls-75 {
        fill: #62656a;
      }

      .cls-76 {
        fill: #fefab5;
      }

      .cls-77 {
        fill: #050506;
      }

      .cls-78 {
        fill: #bec1c0;
      }

      .cls-79 {
        fill: #d8d9df;
      }

      .cls-80 {
        fill: #d4dce2;
      }

      .cls-81 {
        fill: #c48f81;
      }

      .cls-82 {
        fill: #d7dde6;
      }

      .cls-83 {
        fill: #65656b;
      }

      .cls-84 {
        fill: #898a8d;
      }

      .cls-85 {
        fill: #d5dae2;
      }

      .cls-86 {
        fill: #3e3d43;
      }

      .cls-87 {
        fill: #35353d;
      }

      .cls-88 {
        fill: #838388;
      }

      .cls-89 {
        fill: #cbcbd1;
      }

      .cls-90 {
        fill: #241302;
      }

      .cls-91 {
        fill: #d5dde4;
      }

      .cls-92 {
        fill: #626060;
      }

      .cls-93 {
        fill: #636469;
      }

      .cls-94 {
        fill: #5a5a63;
      }

      .cls-95 {
        fill: #1b0900;
      }

      .cls-96 {
        fill: #c4cdd8;
      }

      .cls-97 {
        fill: #c4ccd8;
      }

      .cls-98 {
        fill: #dddedc;
      }

      .cls-99 {
        fill: #b1b4bc;
      }

      .cls-100 {
        fill: #c1ccd9;
      }

      .cls-101 {
        fill: #717174;
      }

      .cls-102 {
        fill: #96979d;
      }

      .cls-103 {
        fill: #d2d4d7;
      }

      .cls-104 {
        fill: #d2d0d8;
      }

      .cls-105 {
        fill: #fef9a6;
      }

      .cls-106 {
        fill: #020101;
      }

      .cls-107 {
        fill: #d1dbe6;
      }

      .cls-108 {
        fill: #f1f2f2;
      }

      .cls-109 {
        fill: #6d6c75;
      }

      .cls-110 {
        fill: #ccd4de;
      }

      .cls-111 {
        fill: #646772;
      }

      .cls-112 {
        fill: #6d6c72;
      }

      .cls-113 {
        fill: #505259;
      }

      .cls-114 {
        fill: #c4ced9;
      }

      .cls-115 {
        fill: #d6d8d4;
      }

      .cls-116 {
        fill: #595961;
      }

      .cls-117 {
        fill: #f8e7c4;
      }

      .cls-118 {
        fill: #c3c4cb;
      }

      .cls-119 {
        fill: #dce1e5;
      }

      .cls-120 {
        fill: #38383d;
      }

      .cls-121 {
        fill: #c3cdda;
      }

      .cls-122 {
        fill: #292830;
      }

      .cls-123 {
        fill: #55575e;
      }

      .cls-124 {
        fill: #eecf4b;
      }

      .cls-125 {
        fill: #53555c;
      }

      .cls-126 {
        fill: #989ba1;
      }

      .cls-127 {
        fill: #424148;
      }

      .cls-128 {
        fill: #7c7d7f;
      }

      .cls-129 {
        fill: #db9c34;
      }

      .cls-130 {
        fill: #19191a;
      }

      .cls-131 {
        fill: #eec765;
      }

      .cls-132 {
        fill: #96949a;
      }

      .cls-133 {
        fill: #d89a39;
      }

      .cls-134 {
        fill: #5e6064;
      }

      .cls-135 {
        fill: #57575d;
      }

      .cls-136 {
        fill: #6f7074;
      }

      .cls-137 {
        fill: #6b6b70;
      }

      .cls-138 {
        fill: #f7ba32;
      }

      .cls-139 {
        fill: #f9f9f9;
      }

      .cls-140 {
        fill: #a6a7a9;
      }

      .cls-141 {
        fill: #8a8c93;
      }

      .cls-142 {
        fill: #65656a;
      }

      .cls-143 {
        fill: #becad7;
      }

      .cls-144 {
        fill: #ab8334;
      }

      .cls-145 {
        fill: #919295;
      }

      .cls-146 {
        fill: #b9b8bb;
      }

      .cls-147 {
        fill: #d1948b;
      }

      .cls-148 {
        fill: #e4ce79;
      }

      .cls-149 {
        fill: #605f65;
      }

      .cls-150 {
        fill: #cdcdcf;
      }

      .cls-151 {
        fill: #0d0c0c;
      }

      .cls-152 {
        fill: #696b73;
      }

      .cls-153 {
        fill: #9f9f9f;
      }

      .cls-154 {
        fill: #bbb9be;
      }

      .cls-155 {
        fill: #83888c;
      }

      .cls-156 {
        fill: #dcdedd;
      }

      .cls-157 {
        fill: #bfccd9;
      }

      .cls-158 {
        fill: #69686c;
      }

      .cls-159 {
        fill: #45434d;
      }

      .cls-160 {
        fill: #b6b7b9;
      }

      .cls-161 {
        fill: #6b6d77;
      }

      .cls-162 {
        fill: #c4c3c7;
      }

      .cls-163 {
        fill: #878789;
      }

      .cls-164 {
        fill: #cecdd4;
      }

      .cls-165 {
        fill: #939197;
      }

      .cls-166 {
        fill: #474650;
      }

      .cls-167 {
        fill: #d4dde2;
      }

      .cls-168 {
        fill: #3a3a40;
      }

      .cls-169 {
        fill: #787a7e;
      }

      .cls-170 {
        fill: #dbdde2;
      }

      .cls-171 {
        fill: #c1c6d3;
      }

      .cls-172 {
        fill: #f8bc32;
      }

      .cls-173 {
        fill: #8b8c8c;
      }

      .cls-174 {
        fill: #e5d95e;
      }

      .cls-175 {
        fill: #ccd4dc;
      }

      .cls-176 {
        fill: #57575f;
      }

      .cls-177 {
        fill: #c2cedb;
      }

      .cls-178 {
        fill: #efc95a;
      }

      .cls-179 {
        fill: #818286;
      }

      .cls-180 {
        fill: #c3cad9;
      }

      .cls-181 {
        fill: #b4b4b8;
      }

      .cls-182 {
        fill: #949497;
      }

      .cls-183 {
        fill: #161615;
      }

      .cls-184 {
        fill: #8b8b8b;
      }

      .cls-185 {
        fill: #5a5a60;
      }

      .cls-186 {
        fill: #979798;
      }

      .cls-187 {
        fill: #5e5d63;
      }

      .cls-188 {
        fill: #6b6b71;
      }

      .cls-189 {
        fill: #6f7073;
      }

      .cls-190 {
        fill: #dc8f79;
      }

      .cls-191 {
        fill: #646469;
      }

      .cls-192 {
        fill: #cfd7df;
      }

      .cls-193 {
        fill: #fc9e8a;
      }

      .cls-194 {
        fill: #f4d36c;
      }

      .cls-195 {
        fill: #d4a545;
      }

      .cls-196 {
        fill: #d6dae0;
      }

      .cls-197 {
        fill: #5e5d64;
      }

      .cls-198 {
        fill: #606066;
      }

      .cls-199 {
        fill: #36353b;
      }

      .cls-200 {
        fill: #d6dbe3;
      }

      .cls-201 {
        fill: #2a2a2a;
      }

      .cls-202 {
        fill: #fefdc5;
      }

      .cls-203 {
        fill: #d2d9e2;
      }

      .cls-204 {
        fill: #adafb9;
      }

      .cls-205 {
        fill: #55575c;
      }

      .cls-206 {
        fill: #bfcbd8;
      }

      .cls-207 {
        fill: #5f5e64;
      }

      .cls-208 {
        fill: #b8babd;
      }

      .cls-209 {
        fill: #636365;
      }

      .cls-210 {
        fill: #636366;
      }

      .cls-211 {
        fill: #e1ad55;
      }

      .cls-212 {
        fill: #5d5f66;
      }

      .cls-213 {
        fill: #525052;
      }

      .cls-214 {
        fill: #d0d8e5;
      }

      .cls-215 {
        fill: #bcc2c0;
      }

      .cls-216 {
        fill: #c0cbd7;
      }

      .cls-217 {
        fill: #d6dfe8;
      }

      .cls-218 {
        fill: #8d8f90;
      }

      .cls-219 {
        fill: #65646a;
      }

      .cls-220 {
        fill: #e3ebf7;
      }

      .cls-221 {
        fill: #3e3f47;
      }

      .cls-222 {
        fill: #babcbc;
      }

      .cls-223 {
        fill: #f9a491;
      }

      .cls-224 {
        fill: #6e6e70;
      }

      .cls-225 {
        fill: #b2b8c0;
      }

      .cls-226 {
        fill: #fcfcfc;
      }

      .cls-227 {
        fill: #d0d0d8;
      }

      .cls-228 {
        fill: #f1ca52;
      }

      .cls-229 {
        fill: #d9dce2;
      }

      .cls-230 {
        fill: #cdd6dc;
      }

      .cls-231 {
        fill: #fcfbfe;
      }

      .cls-232 {
        fill: #5c5b62;
      }

      .cls-233 {
        fill: #c6c5d4;
      }

      .cls-234 {
        fill: #7b7d85;
      }

      .cls-235 {
        fill: #aeaeae;
      }

      .cls-236 {
        fill: #dadfe5;
      }

      .cls-237 {
        fill: #bec9d4;
      }

      .cls-238 {
        fill: #d5d7db;
      }

      .cls-239 {
        fill: #ecc268;
      }

      .cls-240 {
        fill: #afb4b3;
      }

      .cls-241 {
        fill: #515159;
      }

      .cls-242 {
        fill: #131314;
      }

      .cls-243 {
        fill: #c4c4c9;
      }

      .cls-244 {
        fill: #fdcc4c;
      }

      .cls-245 {
        fill: #e0e0e4;
      }

      .cls-246 {
        fill: #636368;
      }

      .cls-247 {
        fill: #aaacae;
      }

      .cls-248 {
        fill: #dae0ea;
      }

      .cls-249 {
        fill: #cbcfdb;
      }

      .cls-250 {
        fill: #434248;
      }

      .cls-251 {
        fill: #bfcad5;
      }

      .cls-252 {
        fill: #5a5e66;
      }

      .cls-253 {
        fill: #88898c;
      }

      .cls-254 {
        fill: #d1dbe5;
      }

      .cls-255 {
        fill: #d2dbe4;
      }

      .cls-256 {
        fill: #939394;
      }

      .cls-257 {
        fill: #dae3e8;
      }

      .cls-258 {
        fill: #b0afb7;
      }

      .cls-259 {
        fill: #656467;
      }

      .cls-260 {
        fill: #676970;
      }

      .cls-261 {
        fill: #e3ab46;
      }

      .cls-262 {
        fill: #cdd5e0;
      }

      .cls-263 {
        fill: #5f5d5e;
      }

      .cls-264 {
        fill: #a0a1a3;
      }

      .cls-265 {
        fill: #3d3d45;
      }

      .cls-266 {
        fill: #646568;
      }

      .cls-267 {
        fill: #909192;
      }

      .cls-268 {
        fill: #58585d;
      }

      .cls-269 {
        fill: #f2f3f4;
      }

      .cls-270 {
        fill: #bdc0c5;
      }

      .cls-271 {
        fill: #797a7e;
      }

      .cls-272 {
        fill: #c9cad6;
      }

      .cls-273 {
        fill: #666568;
      }

      .cls-274 {
        fill: #d8e1e7;
      }

      .cls-275 {
        fill: #38373c;
      }

      .cls-276 {
        fill: #525156;
      }

      .cls-277 {
        fill: #060707;
      }
    </style>
  </defs>
  <path class="cls-17" d="M256,469c-2.55,4.2-4.99,8.47-9.09,11.41-12.16,8.75-45.18,10-54.91-2.92-5.71-7.59.16-11.83-.95-20.05-.61-4.51-4.42-4.49-4.12-11.96.23-5.5,3.39-7.63,4.02-11.02.69-3.66-.21-8.92-.12-12.8-5.83-4.47-12.67-11.3-12.89-19.19-.09-3.31,1.73-5.83.85-9.75-.96-4.27-7.25-6.37-6.9-11.61-7.05-.14-12.99.7-19.23-3.27-2.25-1.43-3.59-4.32-6.18-4.82-8.1-1.56-22.34,2.23-32.87.87-20.28-2.61-44.44-16.85-15.59-31.38l77.86-22.14.13-5.38c-11.53.51-16.16,3.63-24.42-6.08-1.61-1.9-2.68-5.93-4.66-7.34-1.74-1.24-4.95-1.44-7.25-2.75-20.31-11.54-24.63-51.8-5.59-66.23,4-3.03,7.35-3.27,11.38-5.64,1.6-2.49.4-4.98,1.2-7.69,1.69-5.74,6.48-15.29,9.87-20.22,2.17-3.15,10.97-11.2,11.43-13.56,1.58-8.03-8.66-22.85-12.15-30.8-11.57-26.37-28.11-71.03-17.58-98.94,9.73-25.81,39.42-35.56,62.7-20.17,20.24,13.38,31.76,52.84,36.27,75.83,2.21,11.28,3.86,23.05,3.79,34.61l35.07-.44.8-1.2c1.69-29.61,8.33-63.6,23.62-89.38,14.23-23.99,41.48-37.09,65.99-17.96,39.74,31.02,1.19,104.7-15.49,139.27-.3.62-1.78.57-1.97,1.4-2.42,10.74,5.77,14.35,10.82,21.97,2.46,3.71,7.83,14.06,8.86,18.15.62,2.44-.55,6.77,1.2,9.56,4.38,1.77,9.41,2.9,13.03,6.19,8.21,7.46,10.3,20.92,10.06,31.44l-1,1c-.66,1.98-.9,4.05,0,6-.92,5.72-5.8,18.53-9.95,22.55-3.52,3.41-9.45,4.57-13.05,6.97-4.95,3.3-4.98,11.26-13.05,13.92-6.55,2.16-13.04-3.43-16.8,2.26l.75,3.7,77.08,21.11c13.96,6.11,18.31,15.5,3.98,24.94-6.57,4.33-23.74,7.17-31.63,7.17-6.46,0-14.54-2.63-20.78-1.56-3.77.65-4.33,3.63-6.8,5.17-5.58,3.48-11.38,2.65-17.6,2.93.45,3.12-6.97,8.85-7.16,9.56-.96,3.55.95,8.24.77,11.54-.24,4.21-3.39,10.63-6.24,13.77-5.92,6.53-9.8,5.06-7.48,17.44.76,4.06,5.32,8.56,4.73,14.82-.45,4.77-4.56,5.49-4.8,6.43-1.4,5.6,1.94,11,2.06,15.85.27,10.69-15.96,15.68-24.56,16.43-12.27,1.08-28.9-.77-36.92-11.05-2.56-3.29-2.53-3.78-5.56-6.94h-3Z"/>
  <path class="cls-213" d="M392,270c-.05.65.1,1.38,0,2-1.9-1.52-1.36-4.3,0-6,.95.97.64,2.77,0,4Z"/>
  <path class="cls-184" d="M392,270c.09-1.32-.06-2.67,0-4,.3-.37.63-.7,1-1-.04,1.6.6,4.16-1,5Z"/>
  <path class="cls-153" d="M259,469h-3c.52-.85.8-3.02,1.5-3.01.99.37.84,2.32,1.5,3.01Z"/>
  <path class="cls-226" d="M343,253c2.06-.94,3.39-.28,4,2,.83,6.14,1.08,10.72,1,17,.18,3.49-.82,5.49-3,6-.1,4.8-.4,12.66-3.3,16.55-.27.37-.93.45-1.7.45-2.19-.51-3.79-2.65-4.81-6.42-1.1-1.09-11.64-4.14-13.25-.62l-1.95-.96c-1.12,1.2-1.46.54-1-2l-1.76-2.05c-2.67-32.52-31.81-.42-8.67,9.22,2.39-.71,4.2-.44,5.43.82.67.05.67.72,0,2l1.36,1.83c-2.17,5.76,2.83,10.52,7.6,12.94l.05,2.23c3.56.5,5.96.94,2.71,4.31-4.18,4.34-27.06,12.22-32.61,13.42-25.66,5.53-50.08,6.43-75.56-.9-9.64-2.78-22.91-6.8-28.54-14.82-.77-1.04-.11-1.71,2-2l.13-2.5c3.01-.91,5.63-2.41,7.87-4.5-1.9-1.3-1.06-2.54.19-3.91-1.35-3.95-1.08-6.64.81-8.09,1.28-1.25,3.14-1.52,5.58-.81,23.09-9.51-6.14-41.85-8.82-9.24l-1.76,2.05-.74,2.05c-8.64-1.22-14.32.96-17.03,6.54l-2.22.41c-1.51,1.91-2.18,1.25-2-2-.67.19-1.23.3-1.39.09-1.84-2.4-2.78-11.77-2.61-15.09-.65-.16-1.2-.37-1.42-.76-2-3.65-1.18-13.42-.58-18.24.03-.66-.05-1.34,0-2,.85-2.38,1.85-3.05,3-2,9.51-8.65,24.91-12.69,37.59-15.92,32.06-8.14,65.45-7.77,97.55,0,8.43,2.04,30.5,7.61,35.86,12.61.74.69,1.38,1.49,2,2.31Z"/>
  <path class="cls-226" d="M377,90c-1.6-.26-2.29.62-2.75,2.3-7.8,28.71-16.11,57.5-32.25,82.7.87.28.86.62,0,1-.8-.44-8.51-6.7-8.79-7.2-.75-1.36.31-3.7-1.16-6.36-2.76-4.99-26.92-17.26-32.79-18.2-4.01-.64-8.16-1.4-9.85,2.8l-8.32-2.14c.44-24.96,5.66-51.85,15.43-74.87s23.77-42.3,51.52-37.59c26.62,4.52,34.13,34.51,28.94,57.56Z"/>
  <path class="cls-226" d="M178,171c-1.75,1.43-2.31.87-1-1-13.57-27.86-27.33-58.76-34.34-90.65l-.66-13.35c-1.45-1.03-1.78-3.03-1-6,10.27-39.03,54.51-35.77,73.17-2.67,14.16,25.11,19.38,57.64,21.75,86.03-.47,1.46-7.13,3.44-8.64,3.43-2.3-.01-3.19-3.67-7.49-3.56-7.32.19-36.24,13.8-38.38,20.77-1.41,4.58,1.74,2.05-3.41,7Z"/>
  <path class="cls-226" d="M159,330c3.93-.91,4.93-.25,3,2l2.59.39c3.89,9.43,9.48,17.1,16.79,23.01l.61,2.6c-.47,1.25-.6,2.71-1,4-7.47,3.64-16.69,6.33-25.55,6.62-.59,2.07-1.74,2.87-3.45,2.38-2.35-6.73,5.01-9.95,2.93-12.92-2.33-3.34-7.43,2.11-8.93,3.92-16.14,4.5-33.94,1.27-49-5-2.26,1.63-7.25-2.49-7-5,3.26-4.76,7.05-5.57,12.24-7.26,17.93-5.85,38.34-10.06,56.76-14.74Z"/>
  <path class="cls-226" d="M356,330c10.98,2.73,60.44,14.26,65.9,19.6,1.7,1.67,3.64,4.22,2.97,6.73-.35,1.23-1.68,1.38-1.87,1.67v-1l-1.62-1.39c-15.32,8.82-36.24,9.62-53.38,6.39-.48-.86-4.04-4.21-5.05-4.48l-3.88.55c-1.66,2.27,6.99,12.08.93,14.93-1.18-.54-1.86-1.96-2.04-4.23l-9.01-1.6c-5.32-.68-9.64-2.74-12.95-6.17-.87,1.23-1.34,1.53-3,1-.75-1.25-1.2-2.78-2-4l.73-2.1c9.21-3.6,14.22-15,17.9-23.61l2.37-.3c-.64-2.39.7-3.06,4-2Z"/>
  <path class="cls-241" d="M202,183c3.34-1.25,6.68-2.74,10.02-4.45.04,7.11,3.83,11.29,10.64,13.01l.34,1.44c5.95,4.49-5.37,11.96-9.76,14.16-3.55.13-8.5,1.44-5.24,2.84-1.37.46-3.36,1.38-5,2l-4.04.27-17.96,9.23c-11.91,5.97-20.35-6.53-8-12.91l2-3.59c8.99-9.14,16.21-15.03,27-22Z"/>
  <path class="cls-113" d="M315,187c5.51,5.22,10.63,10.92,15.37,17.1,16.51,12.02.78,18-11.37,8.9-1.99,1.42-4.74-.87-6.44-2.47-3.69-.11-6.43-1.36-8.23-3.77-8.04-1.71-16.02-3.47-23.95-5.28-.36-1.86-.49-3.35-.38-4.47,2.34-1.51,3.98-4.83,5.03-5.47,2.38-1.44,7.95-.88,11.34-2.66,2.1-1.1,4.94-5.79,5.63-5.87,1.39.95.33-3.43-.05-4.19.36-.48.73-.86,1.12-.88,1.11-.06,12.25,6.89,11.93,9.07Z"/>
  <path class="cls-206" d="M332,327c.82-2.82,18.84,1.74,19.63,2.42,1.5.29,1.01,1.35.37,2.58-1.33,2.49-2.14,5.89-3.83,8.67-3.65,6.04-9.59,16.92-17.17,17.33-1.92-2.93-3.82-6.29-6-9-2.59-4.57-6.39-8.62-11.4-12.15-.14-1.07,16.36-9.85,18.4-9.85Z"/>
  <path class="cls-265" d="M330,180c2-1.27,5.64,1.84,5,4,7.07,2.04,13.85,11.34,17,18,1.52-1.54,2.18-1.21,2,1-1.38,1.83-2.19,4.02-4.98,2.53-18.42-20.36-42.11-37.3-69.2-43.85l-19.82-2.68c3.56-.3,6.9-.63,10-1-8.22.82-17.68.79-26,0,3.76.36,7.76.69,12,1-3.4,2.17-8.85.55-13,1-3.57.3-5.57-.37-6-2,7.33-4.39,18.88-3.99,27.69-3.45,22.77,1.39,47.55,11.57,65.31,25.45Z"/>
  <path class="cls-176" d="M217,433c2.28-1.62,5.02-2.31,6.24-5.26,1.48-3.58-.56-7.65,2.4-9.6,1.32-.43,16.19-.28,17.71.17,2.32.69,3.78,4.5,7.67,3.18l.98,1.01v15.5l-21-1c6.62-.16,13.12-.6,19.5-1.33.29-9.38.13-9.27-.5.33-5.56.79-12.75.83-18.5,0-3.72.57-9.87-.06-13.72-1.16-.6-.17-.76-1.07-.78-1.84Z"/>
  <path class="cls-52" d="M137,240c-1.78,4.68-1.74,13.97.98,18.26.62.98,2.13,1.24,3.02,2.74.4,5.66.74,11.32,1,17-.01,1.33.03,2.67,0,4l.41,4.84c-.55,5.47-3.49.71-3.6-3.23-4.01-1.73-6.95-4.27-8.82-7.61-1.87-1.45-2.87-4.12-3-8-2.03-9.8-1.56-17.01,3-26,1.44-1.76,2.78-2.76,4-3,1.18-1.78,3.32-1.53,3,1Z"/>
  <path class="cls-172" d="M380,239c2.02-.8,4.86,6.64,4.49,6.44-1.29-.67-.82-.79.51-.44,3.8,10.6,2.89,17.89,1,29-.39,1.67-1.05,2.67-2,3-3.85,4.62-7.51,5.96-11,4-.72-6.66-.92-13.35,0-20,1.19-2.43,4.1-3.68,4.79-6.71.87-3.82.4-9.59-.79-13.29-1.13-3.59.23-4.14,3-2Z"/>
  <path class="cls-123" d="M252,166c10.23.5,20.28,1.66,30.38,3.51,1,.51,3.96,4.08,3.62,5.49-7.44.07-14.88-1.25-20.99,4-.97-8.83-13.73-9.42-15.02-1-3,.2-4.8-2.22-7.71-2.77s-6.21-.1-9.27-.23c-4.83.73-10.95,1.01-15.76.21-.14-.02-.2-.55-.24-1.21,11.44-5.11,22.51-7.38,35-8Z"/>
  <path class="cls-40" d="M160,260c.17,18.12-1.21,34.48,8,50.99-17.91,4.19-18.88-17.51-20-29.99,1.19-2.28,4.14-3.22,8.86-2.82-.13-5.79.08-11.67.65-17.64l2.49-.54Z"/>
  <path class="cls-122" d="M364,280c.56-1.91,1.44-1.91,2,0-.77,9.73-1.75,31.84-15.39,31.91-7.25.04-3.78-2.33-2.58-5.38,3.44-8.75,6.3-18.08,6.97-27.53.69-3.38,8.46-1.96,9,1Z"/>
  <path class="cls-207" d="M205,343c1.59-2.35,13.72,3.61,14.56,4.59l.44,2.41,5,7.99c-6.02-.57-12.74-1.12-17.95,2.58-.98.87-1.62,2.22-2.05,3.43-.28.87-.62.86-1,0,1.16-4.15,4.53-10.48-2-10l-.11-.98c-3.21,5.59-5.79,11.73-7.73,18.41-9.44.99-8.97-3.47-5.16-10.43.69-1.22,1.32-1.96,2-3,2.71-2.74,5.04-5.74,7-9,3.15-3.32,3.37-3.49,7-6Z"/>
  <path class="cls-39" d="M338,203c2.3.84,3.47,3.39,5,5,3.94,4.17,4.62,7.29,2.04,9.38-1.08,7.57-4.03,7-10.04,5.62-5.84-2.34-10.81-5.78-16-8-1.47-1.05-1.95-1.72,0-2,.15.01.8-1.11,2.97-.65,4.5.97,6.63,5.39,13.02,2.64,1.05-7.24-3.26-6.65-6.03-9.46-3.29-3.34-6.13-8.55-8.96-12.03-2.01-2.47-5.74-3.02-5-6.5l1.17-.64c7.35,5.45,14.63,11,21.83,16.64Z"/>
  <path class="cls-251" d="M377,90c.17,1.49.44,4.26-1,5-.2-1.66-.53-1.33-1,1-.44,7.2-2.58,14.67-6,21-1.55,9.88-5.11,20.24-10,29-1.5,4.88-11.42,27.65-14.55,29.68-.99.64-1.85.38-2.45-.68,5.6-16.23,14.62-31.53,20.76-47.74,5.13-13.53,9.59-28.04,12.25-42.26.84-.16,1.96,4.73,1.99,4.99Z"/>
  <path class="cls-19" d="M368,362c1.73-1.32,3.25-.91,5.17-.75,14.05,1.13,29.53.34,42.81-4.77,3.94-1.51,8.01-7.02,7.02.52-6.8,7.4-16.13,10.74-28,10-3.78,1.14-9.27,1.32-13,0-2.02.16-12.43-.96-12.04-2.64.03-.13,1.96-.26-.96.64-.43-1-.89-2.8-1-3Z"/>
  <path class="cls-69" d="M156,255c.73-1.69.97-3.52.29-5.3,4.34-1.4,5.57.7,3.71,6.3.03,1.33-.01,2.67,0,4-2.49,2.65-.01,19.04-1.01,19.99l-10.99,1.01c-.55-6.07-1.33-12.23-.87-18.37,4.42-3.28,6.44-1.96,8.87-7.63Z"/>
  <path class="cls-182" d="M293,453c-10.96.71-21.93,1.53-33.01,1.01v-10.01c20.44-1.57,41.12-.92,61.38-4.92,2.72.77,1.46,8.34,1.52,10.82-6.16,1.65-12.61,1.5-18.89,2.11-3.6.79-7.27,1.12-11,1Z"/>
  <path class="cls-199" d="M160,256c-.05-1.99.05-4-.01-6l-1.49,3.01-1.49-3.01c.51,2.25-.26,3.23-1.01,5,1.71-4.33-3.1-9.44-2.99-12.39s5.02-17.08,6.51-20.61c.4-.95.1-2.29,1.47-1.99-.6,5.51,3.7,8.26,5.99,12.47l-6.98,23.53Z"/>
  <path class="cls-67" d="M358,255l-2.2-.08c.2-2.33-.41-2.3-1.8.08l-6.81-22.7c2.01-4.06,6.24-5.92,5.82-11.3,3.18,3.51,7.93,17.29,7.96,21.64.02,3.13-4.92,7.58-2.97,12.36Z"/>
  <path class="cls-125" d="M231,194c1.71.69,2.74,2.6,5.16,3.34,3.47,1.07,7.02-.25,9.84,1.66-1.12,1.1-6.4,1.67-5.4,1.18s2.1-.34,2.4.82c-11.63,2.85-23.64,5.17-35,9-1.51-.26-3.9,1.15-2.25-1.67,2.77-4.72,6.24-1.51,8.04-2.52.34-.19.76-1.91,1.81-2.66,4.16-2.95,7.51-3.73,7.39-10.15.97-2.21,6.42-1.12,8,1Z"/>
  <path class="cls-47" d="M354,255c.02-1.67-.03-3.34,0-5.01h2.98c-.51,2.25.26,3.24,1.01,5.01,2.31,5.51,5.61,4.28,8,7-.9,3.31-.54.86-.48.94,1,1.52.36,15.28-1.52,17.06-3.12-.07-5.88-1.25-9-1,.59-8.28-1.11-16.02-1-24Z"/>
  <path class="cls-107" d="M321,233c1.33,1.31.79,1.44-1,1l-4.66.04c-35.23-18.49-72.32-21.63-108.6-3.89l-4.74-.15c-2.09-.03-1.54-.85,0-2,24.15-10.52,44.28-16.82,71.22-12.72,18.66,2.83,31.12,10.84,47.78,17.72Z"/>
  <path class="cls-128" d="M211,370c-1.38-.67-2.33-1.62-3-3-1.14-7.92,17.08-7.19,21.2-5.04,1.67.87,6.1,4.77,6.42,6.36,1.29,6.32-21.56,6.74-24.63,1.68Z"/>
  <path class="cls-2" d="M237,158l6,2c-24.16,2.63-51.75,20.78-69,37-5.61,1.65-1.54-5.04,1.8-6.89,4.34-2.21,6.67-4.62,6.98-7.25,3.43-2.67,6.17-4.96,8.22-6.87-.24-2.5,2.34-4.09,4-2,7.6-2.44,13.26-5.11,17-8-2.07-2.48-.36-2.44,2-1,6.16-1.73,12.16-3.73,18-6,.03-2.38,3.68-2.9,5-1Z"/>
  <path class="cls-121" d="M181,362c-1.08,3.51-1.61,1.29-4.05,3.43s-6.74,8.8-8.65,9.36c-3.08.9-13.89.33-16.23-1.87-.34-.32.1-1.45-.06-1.92l2.2-4.34c8.45-.17,14.65-2.05,22.47-4.56,1.6-.51,2.57-1.61,4.33-.1Z"/>
  <path class="cls-191" d="M311,345c2.85,3.16,5.77,6.22,9,9,1.3,1.6,1.81,2.19,3,4,4.55,7.51,7.72,13.14-2.8,15.56-1.01-5.52-2.74-10.38-5.2-14.56-1.28-2.98-2.91-5.94-5.5-7.98-4.34,2.67.16,6.79-.51,10.98-1.89.56-2.73-1.71-3.99-2-3.16-.64-3.05-2.03-.8-4.22-.65-5.31.29-9.24,2.8-11.78-.43-1.92.3-1.69,2-1,1,.75,1.44,1.54,2,2Z"/>
  <path class="cls-232" d="M307,344c-.88,4.02-.31,9.45-.99,13.35-.19,1.05-3.3-.02-1.01,2.65-5.01-1.11-13.53.82-19-.01,1.97-3.11,5.14-5.23,7.47-8.05,1.03-1.25,1.38-3.79,1.53-3.94-.39-3.44,10.01-6.58,12-4Z"/>
  <path class="cls-96" d="M336,361c8.63,3.24,15.61,5.22,24.93,6.07.33.48-.75,5.69-.93,5.93-1.95,2.65-11.39,2.65-14.29,1.8-1.96-.57-6.88-6.78-7.71-8.8-3.52-3.25-4.19-4.92-2-5Z"/>
  <path class="cls-83" d="M297,426c-.52-1.24-1.14-6.69-.58-7.39.74-.92,20.35-4.15,21.28-3.57,1.18,5.45.33,10.72-4.7,11.96-4.93,1.25-12.2,3.71-16-1Z"/>
  <path class="cls-189" d="M307,396c-2.15.73-5.06.96-7,0-1.23-1.14.4-2.56.68-2.02.64,1.25-7.51,1.33-7.68-.98-3.63,1.83-12.11,2.84-15,0,.31-.43.64-.42,1,0,1.42-1.32,2.75-2.68,3.97-4.08-1.17-1.44-2.49-2.75-3.97-3.92-1.47,1.3-2.02.71-1-1,7.12-2.69,19.36-.26,27.3-.8,3.87,1.1,3.48,11.04,1.7,12.8Z"/>
  <path class="cls-214" d="M265,461c2.21-2.12,45.34-.74,52.34-4.07,1.32.29,2.33,9.02,2.66,11.07.47,2.02.78,3.99,0,6-.16.28-.69.68-1,1h-1l-1.5-1.6c.82-3.42,1.16-7.2-.5-10.4-.88-.25-.86-.58,0-1-.49-.9-1.02-1.67-2-2l-1.68,2.54c-13.59,1.91-27.28,2.73-41.06,2.46,1.3,3.37.88,5.37-1.26,6-.99-.54-1.99-1.87-3-4-2.61-.23-2.22-3.68-1.14-5.84.06-.12-.29,2.48-.86-.16Z"/>
  <path class="cls-4" d="M263,189c.21-1.88.81-1.45,2,0,1.33-1.7,2.47-2.79,3.74-.99,4.27-.62,8.02-.29,11.26.99-.28.46,0,1.54-.98,2.48-2.83,2.7-9.44,1.33-13.08.99-3.59,10.21-14.12,9.99-17-.45-4.32,1.26-12.72,2.42-13.95-3.01.29-1.36,1.49-1.37,2,0,2.66.77,5.44,1.5,8,0,.32-.88.65-.87,1,0,2.15-.22,4.21-.68,6.17-1.37,3,5.98,4.93,6.82,5.81,2.52,1.96.08,3.64-.3,5.03-1.15-2.21,4.81-6.02-2.86-2.88-4.11,1.7-.68,4.47,2.8,2.88,4.11Z"/>
  <path class="cls-54" d="M272,375v24l-8.99-1.01c.49-4.18-.99-10.17.53-13.95.62-1.55,6.3-8.8,8.46-9.04Z"/>
  <path class="cls-221" d="M191,176c2.16.61-1.38,2.29-1.87,2.63-7.19,5.12-3.09,4.78-4.58,7.35-.3.53-7.54,5.34-9.57,7.5-.75.8-3.35,2.66-.99,3.51-3.06,2.88-5.97,5.65-8.69,8.88-2.33.28-4.19-.91-5.31-2.88-.38-1.27-.05-2.16.81-3.1,3.94-4.34,10.97-10.56,15.19-13.9,3.04-4.54,9.38-9.77,15-10Z"/>
  <path class="cls-66" d="M146,362c-.1.12.13,1.59-1,3-2.42.05-.32-1.05-.38-.94-2.64,4.2-22.68,4.07-28.19,3.3-.53-.07-.99-.64-1.43-1.36-1.74-.76-2.21-1.33-1.41-1.7l-17.04-4.02c-2.4-1.14-2.28-3.19.45-3.28,9.27,2.61,19.83,4.6,29.46,5.04,6.51.3,13.24-.92,19.54-.04Z"/>
  <path class="cls-179" d="M207,390c.17-4.96-.54-10.11.5-15,6.01,7.4,23.7,7.17,30.49,1-.08,4.98.15,10.02.01,15-.68,3.53-2.01,4.53-4,3-6.31.82-12.64.82-19,0-2.49,2.92-9.21,1.39-8-4Z"/>
  <path class="cls-205" d="M280,197c3.69-.65-.15,3.09,3.27,4.36,3.61,1.34,6.95-2.98,9.28,2.51,3.06-1.05,9.63.07,12.69,1.15,1.3.45,1.25,2.59,2.78,3.49,1.16.69,4.76-.21,6.33.45,1.29.54-.79,3.55,4.65,4.04v2c-13.76-5.9-28.25-10.29-43-13-1.55-.72-3.22-1.05-5-1-1.17-.23-2.73.17-4,0,.04-1.08,1.17-1.56,2-1.99l8-1c1.03-.3,2.06-.4,3-1Z"/>
  <path class="cls-256" d="M213,442c3.06-.04,6.06.29,9,1,1.33.06,2.67-.03,4,0l17,1c3.66.05,7.35-.04,11.01,0,0,1.66,0,3.34,0,5.01-.9.67-1.57-.33-2-3l-1.9,1.48c-17.81-.13-35.71-1.25-53.72-3.34l1.64,3,19.71,1.75,1.27,2.12c-1.61,1.25-4.28,1.58-8,1-.66.02-1.34,0-2,0l-7-1c-1-.02-2.01.07-3,0l-5-1c-.87-.25-2.73.67-3.05-.55.42-2.27-1.09-9.69,1.63-10.33,6.76.98,13.63,2.18,20.42,2.88Z"/>
  <path class="cls-46" d="M277,359c-4.38,2.95-4.58-1.2-4-5,1-2.53,1.34-7.43,3.57-8.93l10.46-1.66,1.5,5.56c-3.22,4.05-7.82,6.59-11.53,10.03Z"/>
  <path class="cls-21" d="M221,460c-1.31,1.26-3.65,1.93-7,2-2.71,3.12-12.26,1.82-15-1-1.23-1.92,3.45-1.81-.07-.87-2.56,2.45-2.56,15.11,3.28,14.87l.79,2,1.4-.83c9.13,1.41,18.33,2.35,27.6,2.83.87.28.86.62,0,1-.33.03-.67-.02-1,0l-8,1c-.67,0-1.33,0-2,0-1.74-.34-3.4-.67-5-1-2.41.99-5.44.74-8,0-16.64-1.23-16.24-7.7-12.54-22.03l2.99-1.02,22.55,3.05Z"/>
  <path class="cls-149" d="M291,423c1.54,5.96-.49,7.83,7,10,3.44.82,6.77.82,10,0,.66-.05,1.34.06,2,0,1.8.02,3.13.35,4,1-1.99,1.83-6.17.96-9,1l-6,1c-1,.02-2,0-3,0l-13,1c-1.67,0-3.33.02-5,0l-14.25.49-.75-6.49c-.06-1.99-.04-4.01,0-6,.23-2.46,1.33-2.4,2,0,2.86.06,2.73,2.32,0,3,2.5,1.8,2.49,3.19,0,5,2,1.05,4.33,1.39,7,1l1.98-1.12c.85,1.6,11.88.16,12.43-.17.61-.36,1.49-7.36.91-8.37-6.27-3.56-4.8-5.02,1.68-5.34,1.02.7,1.69,2.04,2,4Z"/>
  <path class="cls-135" d="M175,205v6c-3.59-1.62-5.84-.09-6.99,3.58l-.03,2.7c1.23.51,3.27,3.66,3.75,3.77.58.13,8.95-.48,9.96-.78,1.28-.39,13.97-6.72,14.73-7.36,1.38-1.18,1.72-2.12,1.6-3.91l4.99,3c-3.46,1.29-7,2.6-10.36,4.14-10.63,4.87-27.2,20.35-26.48-2.42.62-2.16,6.96-6.81,8.84-8.73Z"/>
  <path class="cls-253" d="M184,376c2.79,1.01,5.74,3.66,8.55,4.99.71,1.12-.15,6.55-.55,8.01-1.51,2.14-6.59-.72-7-3-.73-.39-2.75-2.31-3-2-.62,2.78-1.24,3.04-4,2-.16-.15-.86-1.59-1-2-3.38-5.85.07-12.15,7-8Z"/>
  <path class="cls-173" d="M339,382c-.94,2.54-2.07,3.74-4.51,4.98l-2.01-3.01c-1.94-.02-3.2,2.42-4.48,3.03-.39,2.61-5.05,4.59-6,1-.43-1.76-.43-4.41-.9-6.35.45-1.64,2.79-1.85,3.9-2.65l2.29-.55c6.4-5.66,9.73-5.13,11.71,3.55Z"/>
  <path class="cls-101" d="M237,359c-4.01-4.14-14.57-9.9-9.38-16.07l11.26,2.2c.45.9-.05,2.03.11,2.87l-.25,4.49c2.65,3.67,4.48,10.36-1.75,6.51Z"/>
  <path class="cls-138" d="M265,189c-.66-.01-1.34.04-2,0-.47-.93-.12-2.84-1.99-3v3c.65.06,1.33-.03,1.99,0,.34.69-.65,2.36,1.99,2.02l-1.49,1.96-4.49-1.98c-.26,7.74-6.92,2.57-8.03-1.99-2.38-1.02-1.91,1.83-2.47,2.02-3.21,1.06-2.21-1.61-2.51-2.02l.61-2.14c2.62.46,3.71-.8,5.39-2.86.66-.34,1.57-1.89,2-2,1.06-2.07,2.13-3.12,4.54-1.99.47.22,7.06,6.09,7.58,6.66.65.72-.35,1.69-1.12,2.32Z"/>
  <path class="cls-254" d="M271,336c.71.09,1.14.17,1,1,.87.28.86.62,0,1-1.33.02-2.67,0-4,0-7.33.85-14.68.85-22,0-1,0-2,.01-3,0l-7-1c-12.44-.47-23.71-3.97-35-9-1.33-1.33-.8-1.34,1-1l4.36-.44c19.37,7,40.19,8.77,60.65,7.7l4,1.74Z"/>
  <path class="cls-137" d="M201,427c-1.19-.14-5.78-.61-6.06-1.61l.06-11.39,25.01,3-1.24,8.76c-1.79,1.09-3.78,1.65-5.77,2.24-1.71.51-3.4.96-5,0-.67,0-1.34.02-2,0l-5-1Z"/>
  <path class="cls-129" d="M130,276c4.62,5.09,12.99,2.95,11.01,12,1.85-.21.96-4.55.99-6l2,12.99c-4.22.19-6.43-2.38-9-4.99-3.47-4.57-5.13-9.24-5-14Z"/>
  <path class="cls-269" d="M188.99,415c-7.3-5.02-8.23-13.85-5.98-22l6.74,3.64-.76,18.37Z"/>
  <path class="cls-82" d="M332,316c-13.67,12.33-34.53,20.21-53,21-2.22.78-4.89.93-7,0l-1-1,2.58-2.22c18.83-1.67,38.24-5.97,53.13-18.29l3.29-.49c-.66-3.23,3.86-1.96,2,1Z"/>
  <path class="cls-163" d="M208,367c-1.23-2.52.04-3.12,1.25-5.74,9.98-2.79,24.16-3.19,27.67,8.64-2.67-.23-3.62,3.88-4.62,4.13-3.74.94-19.89,1.3-21.3-4.02.54-2.11,1.98,1.49,4.52,1.98,3.13.6,19.45.92,19.45-3.48-2.28-1.8-4.64-5.93-7.49-6.48-2.56-.49-15.48-.38-17.07.88-1.06.84-1.23,3.11-2.4,4.1Z"/>
  <path class="cls-110" d="M115,366c9.33,1.36,18.73.62,27.94-1.57,1.19-.28,2.28-3.36,2.06.57-1.47,1.83-4.38,2.49-6.59,2.91-11.77,2.24-37.15,1.09-46.41-6.91.74-1.96,1.89-1.84,3.6-1.26,1.67.23,18.47,4.09,19.02,4.9.25.37.34.85.38,1.36Z"/>
  <path class="cls-177" d="M97,357c.05.05-1.16.73-.08,1.43,4.47,2.91,11.07,2.89,15.94,4.25,2.56.72,2.44.34,2.14,3.32l-23-5c-1.57-1.36-3.34-2.49-3.85-4.72l.25-2.34c.21-.89,1.21-1.36,1.6-1.93,2.85.92,4.84,3.05,7,5Z"/>
  <path class="cls-143" d="M270,471l2.19-.42c4.24,3.91,11.5,4.65,16.95,3.82l1.86,1.6c4.62.78,9.28.78,14,0,.19-2.78,6.89-4.91,8-2,2.53-2.26,4.81-3.12,4,1-12.24,8.77-33.01,5.54-47,1-.33-.23-.68-.68-1-1-2.05-3.13-2.72-5.8-2-8l.5-.98c1.56,1.27,1.33,3.22,2.5,4.98Z"/>
  <path class="cls-18" d="M164,160c-.29.81-.62.8-1,0-8.86-18.36-16.82-36.88-21-57,0-2.47.66-3.14,2-2l2.9,4.2c3.77,17.14,9.55,33.8,16.9,49.73l.2,5.07Z"/>
  <path class="cls-57" d="M250,357c2.3,3.28,4.63,6.46,6.51,10.01l8.48-10.01-7,22c-1.42-.12-1.57-1.47-2.03-2.46-2.57-5.62-4.33-12.6-6.96-18.54-.88-1.5-.57-1.95,1-1Z"/>
  <path class="cls-86" d="M215,394c6.36.82,12.69.82,19,0,1.49-.71,2.51-2.26,4-3-.07,2.33.05,4.68,0,7.01l-31.06-1.45c-2.24-1.53-.01-4.7.05-6.56,2.67,4.68,4.11,3.29,8,4Z"/>
  <path class="cls-94" d="M261,166c1.66.05,3.35-.11,5,0,2.25.69,4.58,1.02,7,1,7.93,1.33,17.66,3.76,25,7,1.41,1.64.41,1.97-3,1-2.9.12-6.11.15-9,0-.21-.01-1.57-1.02-3.38-1.07-4.63-.13-9.1.09-13.62,1.06,1.21-3.95,12.07-1.01,13.01-1.99v-2.99s-30.01-4-30.01-4c.33-.02.67.01,1,0,2.59-.91,5.4-.9,8,0Z"/>
  <path class="cls-22" d="M249,471c-2.81,7.02-10.3,8.3-17,9v-1c-3.36,0-5.69-.68-7-2,1.79-1.93,4.7-2.71,8.71-2.33,6.71.52,16.58-9.41,5.52-9.64-3.93.65-6.67-.02-8.23-2.03.99-1.5,17.43-1.77,18.01-1.04v9.04Z"/>
  <path class="cls-139" d="M329,394c.23-.09.17-1.56,1.99-.99,1.56,7.47,2.37,18.56-5.99,21.99.09-5.32-.14-10.68,0-15.99,2.06-1.25,3.39-2.92,4-5Z"/>
  <path class="cls-170" d="M273,150c14.23-.13,29.89,8.29,42,15,1.32,1.31.76,1.71-1,1l-2.29.25c-10.82-4.89-21.72-9.31-32.71-13.25-4.29.49-7.62-.17-10-2-1.85-2.01,2.09-1.83,4-1Z"/>
  <path class="cls-87" d="M220,350l-15-7c1.51-1.05,2.87-3.77,5.46-3.91.7-.04,9.12,2.09,9.56,2.4,2.25,1.58-.86,6.1-.02,8.51Z"/>
  <path class="cls-59" d="M228,182c4.59-1.08,8.93-1.08,13,0,2.26-.72,3.87,1.28,5,3,4.71,3.96-7.79,3.46-10,2-.14,0-1.19-.9-2.43-1.04-4.22-.46-10.64,1.09-13.57-2.96.21-2.89,5.91-2.35,8-1Z"/>
  <path class="cls-262" d="M318,475h1c-8.74,8.9-39.26,7.9-49,1,13.56,2.82,27.28,4.72,41.04,1.55,2.24-.52,4.05-1.96,5.96-2.55.26-.9.6-.88,1,0Z"/>
  <path class="cls-188" d="M297,426c-2.05-2.54-2.35-5.73-1.89-8.9l23.89-3.1-.13,11.86c-1.74,1.21-4.19.72-5.87,1.14l-5-.99c6.91.62,10.28-3.25,8.99-10.01l-19.05,2.43-.94,7.56Z"/>
  <path class="cls-38" d="M295,183c-1.55,2.29-1.47,1.68-4,2h-1l-8.36.95c-.62.16-1.07,2.13-1.64,3.05-2.62-1.33-6.83-1.66-12.64-1-1.55-.59.35-2.92,1.64-3-.7-1.59,2.06-3.73,4-3,4.95-2.21,15.63-1.5,21.63-.42.2.04.3.64.37,1.42Z"/>
  <path class="cls-8" d="M334,314c-3.89,1.15-3.05-1.28,0-3l-.55-1.23c2.73-2.3,4.91-4.89,6.55-7.77,2.9-7.81,4.57-15.81,5-24,.17-.89-.12-2.04,0-3.01l1.98,1.02,1.01-4.01c-.22,17.82-1.33,28.92-14,42Z"/>
  <path class="cls-58" d="M177,325c1.51-.88,3.5-.94,5,0,4.45,1.17,13.44,10.46,20,10.01.53,2.32-1.84,2.87-3,3.99-1.42,1.21-1.97.65-1-1-2.67-3.11.41-1.21-.46-.63-2.35,1.58-15.2-7.05-17.65-9.31l-17.89,3.94c-.8-1.24-1.31-2.36-3-2,5.62-1.43,11.68-4.58,18-5Z"/>
  <path class="cls-261" d="M373,281c1.87,2.14,2.52,4.86,1.96,8.16,2.69-4.72,5.71-8.78,9.04-12.16.52-1.06,1.31-2.04,2-3-1.48,8.7-4.69,16.25-12.7,20.81-1.09.62-1.89,1.81-2.81.19-.71-1.25,1.41-12.73,1.55-15.46.27-5.42-1.2-14.13.96-18.54,0,6.65,0,13.35,0,20Z"/>
  <path class="cls-197" d="M338,203c-4.92-1.8-16.56-11.64-23-16-3.83-2.59-7.23-5.99-11.51-7.99l-.51,5.01c-.52-.05-.91-1.02-.98-1.01.47-2.4-1.53-4.18-2-6-2.49-.91-1.25-2.41,1-1,13.52,6.83,26.46,16.28,37,27Z"/>
  <path class="cls-145" d="M254,449c0,1.67.01,3.34,0,5.01l-27.55.04-15.46-2.04c2.61-.1,6.81-1,8-1l1.48-1.93c9.53,1.34,19.37,1.65,29.53.94-.46-2.25.2-3.58,2-4,.83.35,1.28,2.27,2,3Z"/>
  <path class="cls-178" d="M280,365c1.04-1.66,3.8-1,5.49-1.02,3.78-.04,17.07-.74,19.03,1,2.46,2.18.51,6.2.43,8.96l-21.94.06-.23-1.11c5.74-.5,7.14-.8,4.23-.89-.87-.28-.86-.62,0-1,5.32-.14,10.65-.47,16-1-2.53-.59-2.47-1.02,0-2l-3-1c-1.25-.2-2.37-.43-1.25-1.12-6.52.58-12.77.29-18.75-.88Z"/>
  <path class="cls-268" d="M343,208c1.66,1.75,2.61,3.4,5.01,4.7.04,4.39.32,13.36-5.5,13.37-2.89-.09-5.02-2.07-7.52-3.08,1.04-1.93,3.28.19,4.98-.47,2.75-1.07,3.23-4.88,3.14-7.47l2.89-.07-3-7Z"/>
  <path class="cls-168" d="M291,423c-.21-.8-1.34-4.06-2-4-2.93-.15-4.63.6-5.1,2.25-4.82-.55-8.52.83-11.1,4.16l-2.8-.41c-.23,2.28-4.67,2.37-5,0h-2c.03-1.33-.07-2.67,0-3.99,4.04,1.79,7.03-2.91,8.44-3.08,5.69-.68,12.13,1.08,17.93-.86l1.62,5.93Z"/>
  <path class="cls-275" d="M309,343c-.68.28-1.31.75-2,1-2.03.74-11.55,3.55-12,4l-1.94-5.43c7.52-4.16,9.32-4.5,15.94.43Z"/>
  <path class="cls-65" d="M142,66c.12,10.8.81,21.69,3.48,32.26l-1.48,2.74-2,2c-3.02-14.56-4.81-28.51-1-43-.28,2.11.67,4.01,1,6Z"/>
  <path class="cls-142" d="M189,361l-1.97,8.95c11.55,4.24,7.75-12.88,14.62-17.81l3.34.84c-1.15-.04-2.13.2-2.99,1.01-3.13,2.95-5.94,16.38-7.01,21l-9.87-5.7c-.64-2.53,2.7-6.2,3.88-8.3Z"/>
  <path class="cls-34" d="M215,177c-5.51,3.7,1.08,11.02,5.71,12.79s9.43-.46,10.29,4.21c-2.29-.92-6.1-.47-8-1-3.07-.85-5.54-3.39-8.95-3.07l-3.06-9.93c-1.83-1.71-6.67,6.39-8.99,3,4.12-2.66,7.56-4.79,12-7,1.52-.85,1.95-.57,1,1Z"/>
  <path class="cls-259" d="M203,372c.37,7.44-1.99,15.34-1,23l-4.92-1.65c1.36-8.13,2.95-16.37,4.92-24.36,2.13-1.61,1.58,1.09,1,3Z"/>
  <path class="cls-255" d="M347,255c-1.53-.25-2.78-1.46-4-2,1.03-1.02.89-1.59-.44-1.71l-2.45-10.49c-4.08.95-7.56.48-11.51-.63-2.77-.78-9.04-3.11-8.61-6.17l1-1c7.39,3.05,12.64,5.37,21.01,3.42,2.33,1.42,4.55,15.3,4.99,18.58Z"/>
  <path class="cls-91" d="M332,327c-5.14,2.12-10.62,8.31-17,9.01-.43.58,7.98,8.29,9.03,9.47s2.68,1.89.97,3.52c-3.98-4.97-8.76-8.88-13.98-12.5l20.98-11.5c2.66.19,2.66.86,0,2Z"/>
  <path class="cls-228" d="M254,182c1.59-1.7-.54-5.95,3.53-5.03,1.82.41,5.92,7.49,7.98,9.03,1.81.48,1.51-1.03,2.49-2,1.46-1.17,2-.61,1,1-.04.41-1.4,1.75-1,1.99,3.36.32,7.25-.41,10.52,0,1.5.19,2.57.37,1.48,2-4.95-.38-10.01.08-15,0-1.92-4.61-5.64-8.4-11-7Z"/>
  <path class="cls-273" d="M313,374c.78,3.01,5.24,19.77,4,21h-5.01c.07-5.32-.08-10.68,0-16-.6-2.75-.27-4.42,1-5Z"/>
  <path class="cls-209" d="M246,399l-1.35-.21c.33-18.35.24-20.09-.26-5.2l-1.39.41v-19c7.16,3.94,4.24,6.81,4.01,12.51-.1,2.38.8,10.86-1.01,11.49Z"/>
  <path class="cls-219" d="M293,393c3.36.05,7.22-1.9,8.99,1.98-.84-.04-1.38.57-1.99,1.02.23.41-.11.74-1,1-7.62.8-15.23,1.48-23,1-.78-1.04-.57-2.38-.33-3.61,6.19.81,11.97.34,17.33-1.39Z"/>
  <path class="cls-93" d="M217,433c3.91.61,9.99,3,14.5,3h18.5l-.07-7.95-2.92-1.04,4.01.57v9.43c-6.66-.1-13.36.12-20.01,0-7.29-.13-14.89-.05-22-2,2.66-.29,5.33-.62,8-1-.86-.29-.85-.63,0-1Z"/>
  <path class="cls-112" d="M315,359l1.23-.74,5.27,14.74,5.37-4.62-3.86-10.37c2.25,3.42,5.66,6.83,5.88,11.3-.36,1.44-6.87,5.45-8.37,5.72-2.17.38-1.21-.45-1.53-1.48-1.4-4.52-2.08-10.11-3.98-14.54Z"/>
  <path class="cls-63" d="M228,153c1.57-.23,2.23.11,2,1l-.75,1.49c-9.61,2.92-18.71,6.97-27.29,12.16l-2.96-.65c-1.63.71-1.93.6-1-1,10.61-6.06,18.11-9.67,30-13Z"/>
  <path class="cls-24" d="M216.86,403.15l.15,7.86-7.86-1.15c-1.25-7.16.74-9.76,7.71-6.71Z"/>
  <path class="cls-227" d="M265,417c-1.3.28-2.37.48-2-1,1.25-3.68,1.34-7.33.27-10.96l-11.94.05-1.32-2.09c-1.07.76-1.49.14-1-1,3.83-2.16,12.38-.89,17.04-.54,2.48,1.64,3.41,14.13-1.04,15.54Z"/>
  <polygon class="cls-246" points="305.95 402.05 307 410 299 411 298.99 401.99 305.95 402.05"/>
  <path class="cls-236" d="M167,258c-.25,4.97.18,10.03,0,15.01l1.98-1.01c.22,1.57-.27,3.54,0,5.01.09,5.8,1.05,11.51,2.88,17.12l-.88.88c.37,2.67-.07,2.89-2,1-3.21-11-3.14-21.17-3.02-32.51.02-1.69-.64-4.45,1.02-5.49Z"/>
  <polygon class="cls-198" points="319 400 318.56 408.06 312 409.01 310.99 401.01 319 400"/>
  <path class="cls-80" d="M360,147c-4.47,10.34-9.66,20.12-15.01,29.99-1.74.63-2.14-.53-2.99-.99v-1c2.41.12,2.58-1.44,3.53-2.97,4.65-7.4,10-17.99,13.47-26.03,1.35-1.33,1.3-.81,1,1Z"/>
  <path class="cls-212" d="M203.86,401.14c.16,2.07.85,7.23-.83,8.42l-7.9-1.7-.13-7.87,8.86,1.15Z"/>
  <path class="cls-191" d="M276,386l.94.44c-.65,2.21-.73,4.93,1.06,6.56,5.03.5,9.48-.09,15,0,1.83,2.84.9,1.64-1.34,2.14-4.56,1.01-7.72.72-12.2.86-1.92.06-4.01-1.01-3.45,2-2.23-.73-.91-9.59,0-12Z"/>
  <path class="cls-160" d="M152,224l-4,12c-.43,1.85-.64,3.34-1,5-1.11,2.31-2.44,3.98-4,5-.1-.01-.55,1.74-1.97-.48l9.97-24.52c1.51-1.14,1.85-.14,1,3Z"/>
  <path class="cls-53" d="M239,348c1.43,7.65,5.53,14.63,7.99,21.99l-9.99-10.99,3.01-.5c.63-3.81-2.39-4.53-2.62-5.95l1.61-4.55Z"/>
  <path class="cls-274" d="M370,119c-2.98,9.83-5.92,18.55-10,28l-1-1c3.91-9.08,7.16-19.49,10-29,.9-.82,1.23-.15,1,2Z"/>
  <path class="cls-136" d="M176,186l-16,17c-2.61-4.57.71-4.14,2-6,2.87-3.02,6.2-6.35,10-10-.12-1.63,2.34-3.71,4-3,1.37-.17,1.37.5,0,2Z"/>
  <path class="cls-108" d="M262,350c1.64-1.49,2.25-.89,1,1-1.21,1.5-4.87,7.03-6.49,7.01-1.66-2.66-3.22-3.99-4.51-7.01v-1c1.7-1.97,8.83-2.28,10,0Z"/>
  <polygon class="cls-187" points="244 404 243.55 412.05 238.93 412.57 238 404 244 404"/>
  <path class="cls-249" d="M188,312c1.12-2.58,1.9-2.57,3,0-.75.56-1.28,1.43-2,2,.39,1.94.39,3.94,0,6,1.33,1.41.77,1.92-1,1-4.18-2.93-5.61-4.23-9-8-1.43-2.34-1.09-3.34,1-3l1.15-.84c2.09,1.4,4.35,2.42,6.85,2.84Z"/>
  <path class="cls-9" d="M423,358c-4.89,7.19-10.36,8.33-19,9l-5,1c-.65.07-1.35-.07-2,0-.95-.15-1.62-.48-2-1,9.7-2.21,20.86-2.09,28-10v1Z"/>
  <path class="cls-119" d="M175,303c2.23.27,5.62,4.7,5,7l-1,3c-5.19-5.76-7.78-9.39-10-17,.67-.32,1.32-.7,2-1l2.24.74c.18,2.51.8,4.94,1.76,7.26Z"/>
  <path class="cls-76" d="M271,181c5.93-2.76,18.12-.03,25-.99.25,1.29-.33,2.02-1,2.99-5.65-1-16.54-2.05-22-1-2.16.62-2.83.29-2-1Z"/>
  <path class="cls-127" d="M304,379c2.65.32,2.54,1.24,0,2-7.54-.49-16.34-.13-24,0-2.31-.05-2.98-.72-2-2,8.23-.72,17.98.98,26,0Z"/>
  <path class="cls-185" d="M277.01,403.99l-.06,7.95-4.97.62c-1.82-1.27-.71-6.4-.98-8.57h6.01Z"/>
  <path class="cls-217" d="M202,230l-.63,2.48c-4.73,3.35-20.29,10.27-25.77,8.7l-1.59-2.19c-1.4-1.44-.78-2.07,1-1,2.05-.61,4.38-.94,7-1,7.52-2.46,12.99-5.95,20-9v2Z"/>
  <path class="cls-200" d="M177,170c-.08.42.39,1.19,1,1-2.13,2.05-4.44,3.85-6.5,5.98-1.46,0-7.4-14.7-8.5-16.98h1c.68-.52,1.39-.64,2.12-.26l6.4,11.06c1.67-1.41,3.16-1.67,4.48-.8Z"/>
  <path class="cls-30" d="M273,354c1.49,2.7.42,3.99,4,5-2.78,2.58-4.42,5.65-6.7,7.76-1.11,1.02-.64,1.82-3.3,1.23,2.31-4.49,4.16-9.3,6-13.99Z"/>
  <path class="cls-21" d="M250,461l-1,10-.95-8.55-17.05.55c-.93,3.47-10.46,3.26-10-1,.54-1.53,4.06-1.64,5.85-1.65,6.93-.04,13.96-.08,20.9.12.76.02,1.5.25,2.25.53Z"/>
  <path class="cls-156" d="M208,153c2.08-.63,2.74-.3,2,1-6.05,2.74-13.44,6.45-19,10-1.41,1.33-1.92.77-1-1,5.25-4.72,11.59-7.32,18-10Z"/>
  <path class="cls-114" d="M249,345l16.46.99.54,1.01c-1.1,1.28-1.94,2.69-3,4,.04-.55-.54-1.01-1-1-1.93-1.94-8.62-2.34-10,0,.09.33-.11.74,0,1l-4.99-5.99c.66-.03,1.33.02,1.99,0Z"/>
  <path class="cls-270" d="M270,207c-.21,1.57-3.44,1.29-5,1-5.05-.38-10.84,0-16,0-1.49.69-3.72.9-5,0-.87-.28-.86-.62,0-1,8.8-1.03,17.15-1.77,26,0Z"/>
  <path class="cls-109" d="M286,412h-5.01c-1.64-12.28,6.65-12.31,5.01,0Z"/>
  <path class="cls-175" d="M175,237c.87.28.86.62,0,1-.38.08-.68.77-1,1-.77,4.25-1.53,8.65-2.29,13.2l-1.71,1.8c-.79.38-1.72,1.87-3,2,.53-7.09,2.46-13.41,5.02-20,1.1-.34,2.36.96,2.98,1Z"/>
  <path class="cls-13" d="M376,97c-.7,7.52-3.87,14.97-6,22l-1-2c2.06-6.91,4.15-14.04,6-21,.48-.56.81-.23,1,1Z"/>
  <path class="cls-192" d="M356,330c-2.17-.43-3.03.19-4,2,.59-2.83-1.39-1.89-3.15-2.3-4.86-1.13-9.78-1.99-14.57-3.41-.93-.22-1.54.4-2.28.7v-2c8.4-.23,16.11,3.04,24,5Z"/>
  <polygon class="cls-134" points="295.01 402.99 294.87 410.87 290.01 412 289.99 402.99 295.01 402.99"/>
  <path class="cls-71" d="M221,403l3.38.12c6.35,2.12-4.08,19.42-3.38-.12Z"/>
  <path class="cls-42" d="M280,365c5.5.13,11.04-.18,16.55,0,1.92.06,4.01-1.02,3.45,2-5.79.58-12.28,1-18,0-2.91,5.41-4.48,4.3-3-1l1-1Z"/>
  <path class="cls-208" d="M230,210c2.38-.75,3.05-.42,2,1-6.9,1.46-14.41,3.56-21,6-1.78.38-2.45.05-2-1,5.84-2.18,14.93-5.99,21-6Z"/>
  <path class="cls-210" d="M217,433c-.16.12.16.85,0,1-3.64.31-7.31.65-11,1-3.73-.18-7.26-1.15-11.01-1v-2.99c7.09,2.37,14.96.9,22.01,1.99Z"/>
  <path class="cls-41" d="M372,249c-.6,3.51,1.06,6.23-4.51,6.89-3.51-.1-4.64-2.59-4.49-5.88l4.52,2.06,3.48-3.06c.28-.87.62-.86,1,0Z"/>
  <path class="cls-22" d="M250,461c-7.49.17-15.04-.21-22.54-.04-2.26.05-4.33,1.01-6.46,1.04-2.29,1.99-4.71,1.99-7,0,1.33-.69,5.78-1.89,7-2,7.1-.64,16.18-.09,23.51-.02,1.69.02,4.45-.64,5.49,1.02Z"/>
  <path class="cls-60" d="M149.74,254.74c-4.33,4.17-11.74-2.9-6.76-5.74.14,2.13,1.22,3.43,3.48,3.04l3.05-2.02c1.94,1.03,1.59,3.41.24,4.72Z"/>
  <path class="cls-45" d="M251,149c4.62.85,9.38.83,14,0,2.5.02,6.34-.78,8,1-1.31.01-3.31-.49-4,1-.36.61-.73,1.09-1.13,1.12-4.69.34-14.01.26-18.75-.08-.4-.03-.76-.48-1.12-1.05-1.83-.21-3.49-.54-5-1,1.66-1.78,5.5-.98,8-1Z"/>
  <path class="cls-73" d="M200,220c1.1-.18,1.44-.11,1,1-4.93,2.05-10.77,5.82-16,8-1.9.5-2.57.16-2-1,5.71-2.67,11.17-5.52,17-8Z"/>
  <path class="cls-194" d="M246,184c.86.78.87,2.44,2.51,2.06,1.28-.73,2.15-1.37,3.49-2.06-.84,3.28-3.02,4.12-6,5-.08-.11-.65.06-1,0-1.53,1.76-5.7.82-8,0-.59.13-1.36-.09-2,0-.16-.73.11-1.83,1-2,2.97.19,6.87-.32,10.01,0v-2c-.54-.3-.53-.64,0-1Z"/>
  <path class="cls-186" d="M339,382l-4.63-6.92c-2.12-.35-6.69,6.44-9.37,3.92,1.37-.99,8.44-6.05,9.36-5.89,3.05,2.7,6.3,4.42,4.64,8.89Z"/>
  <path class="cls-105" d="M242,181c-4.62.08-9.29.41-14,1-2.7.05-5.51-.5-8,1-.73-1.01-1.46-1.28-1-3l23,1Z"/>
  <path class="cls-88" d="M360,212c2.31.38,3.86,4.31,2,6-.95.22-1.61.55-2,1-.71-1.37-4.81-7.83-4.79-8.52.56-1.22,1.72-1.83,2.79-2.48,1.86.17,2.33,2.3,2,4Z"/>
  <path class="cls-146" d="M369,239c-1.28,1.49-1.57.78-2-1-1.61-4.61-3.27-9.28-5-14-.03-.32-.02-.68,0-1-1.12-1.72-1.07-3.27,1-2,2.7,6.05,5.43,10.86,6,18Z"/>
  <path class="cls-150" d="M243,150c1.6,0,4.17-.57,5,1-5.01,2.05-12.69,3.59-18,3l-2-1c6.07-1.7,8.05-2.97,15-3Z"/>
  <rect class="cls-7" x="230" y="404" width="3.99" height="8.01"/>
  <path class="cls-99" d="M310,218c1.33,1.32.8,1.38-1,1-4.23-1.79-10.37-3.36-15-5-.76-.29-.74-.62,0-1,6.01,1.8,9.73,2.42,16,5Z"/>
  <path class="cls-238" d="M328,173c1.33,1.41.77,1.92-1,1-3.48-.64-9.65-4.15-13.05-6.58-.21-.15-.13-.73.05-1.42l1-1c4.77,2.64,8.51,4.85,13,8Z"/>
  <path class="cls-203" d="M202,327l-1,1c-5.19-2.31-8.23-3.66-13-7l1-1c3.34-1.14,12.22,3.52,13,7Z"/>
  <path class="cls-50" d="M366,262c.67.76,1.3,1.12,1.1,2.44-1.3,5.14-.69,10.4-1.1,15.56-.67-.01-1.33.02-2,0,1.25-5.09,1.12-10.2.92-15.43-.06-1.73-2.47-2.91,1.08-2.57Z"/>
  <path class="cls-218" d="M172,187c-2.12,2.09-3.98,5.19-5.97,7.53-.33.39-3.44,4.35-4.03,2.47,3.15-4.53,5-6.89,9-11,1.41-1.33,1.92-.77,1,1Z"/>
  <path class="cls-124" d="M279,366v2.99s.99,0,.99,0l.02-3,1.99,1.01c.31.45-.03.78-1,1,.83.28.82.61,0,1,.89.18.86.52,0,1,2.08.36,4.08.69,6,1v1c-1.82.26-3.49.93-5,2-5.12.1-5.11-4.36-3-8Z"/>
  <path class="cls-98" d="M192,170c1.58-.77,1.94-.58,1,1-.8,3.24-7,6.8-10.38,8.47-.37.18-.97-.08-1.62-.47-1.41,1.33-1.92.77-1-1,4.41-3.45,7.45-5.13,12-8Z"/>
  <path class="cls-211" d="M130,276c1.66,4.65,2.96,9.43,5,14-5.94-6.06-7.82-13.64-8-22,.63,3.06,2.2,5.77,3,8Z"/>
  <path class="cls-267" d="M184,376c-.23-.08-2.2,1.23-4.36-.9-5.81,3.63-2.56,4.4-1.91,7.6.14.69-.75,1.23-.73,1.3-5.38-3.85-.86-6.89,1.13-10.86,2.11-1.21,4.15,1.92,5.87,2.86Z"/>
  <path class="cls-248" d="M395,367c.85.06,1.73.03,2,1-7.14.78-8.91.7-16,0-.88-.61-.55-.94,1-1,4.08.46,8.82-.32,13,0Z"/>
  <path class="cls-70" d="M369,239c1.17.75,1.24.99,2,2v5c.85.31.84.65,0,1l-2.86-.11c-.82-2.22-.78-4.6-1.14-6.89v-2c.64.37,1.38.6,2,1Z"/>
  <path class="cls-11" d="M265,461h2c-2.08,2.96-.42,4.08,0,6,.61,2.77,1.65,5.22,2,8-2.7-2.74-6.86-11.26-4-14Z"/>
  <path class="cls-181" d="M244,207v1c.87.28.86.62,0,1-4.01.37-8.07,1.17-12,2-.27-.93-1.16-1-2-1,3.91-2.06,9.52-2.48,14-3Z"/>
  <path class="cls-36" d="M382,367l-1,1c-.66-.06-1.34.06-2,0l-5-1c-1.63-.07-3.29.28-4.89-.14-.44-.57.05-1.49-.11-1.86-.25-3.59.67-1.25,2.29-.8,2.92.83,7.99,2.49,10.71,2.8Z"/>
  <path class="cls-225" d="M283,209c.43.66-.24.99-2,1-4.9-.75-11.46-1.65-16-2,1.79.99,4.74-.98,5-1,2.57-.22,10.07,1.35,13,2Z"/>
  <path class="cls-166" d="M256,159c-3.99-.04-8.01.04-11.99-.01v-.99s25.99,0,25.99,0v.99c-3.33.05-6.68-.04-10,.01-1.33.02-2.67.01-4,0Z"/>
  <path class="cls-171" d="M263,416c.33.05,1.24,1.08,2,1-3.31,1.92-11.33,1.38-15,0-.49-2.33.18-2.67,2-1,1.17-3.25,9.92-3.33,11,0Z"/>
  <path class="cls-35" d="M246,399c-.7.24-2.07-.15-3,0v-5.01s1.99-10.99,1.99-10.99l1.01,15.99Z"/>
  <path class="cls-102" d="M321,223c1.15,1.24.48,1.57-2,1-3.44-1.54-7.06-3.75-10-5l1-1c3.76,1.55,7.33,3.28,11,5Z"/>
  <path class="cls-174" d="M287,372c4.39-.15,9.12-.18,13.51,0,1.22.05,3.72-.76,3.49.99-6.17.21-12.4-.24-18.58-.04-1.35.04-2.21,1.03-2.41,1.05-.33.03-.67,0-1,0v-2c1.65-.07,3.33.05,5,0Z"/>
  <path class="cls-167" d="M199,339c-3.42,3.33-6.89,6.33-10,10-1.41,1.33-1.92.77-1-1-.55-4.54,5.45-10.62,10-10-.01.07.93.66,1,1Z"/>
  <path class="cls-132" d="M367,238c.11.62-.1,1.37,0,2-1.96-4.63-4.47-11.06-5-16,3.4,3.7,4.12,9.25,5,14Z"/>
  <path class="cls-103" d="M156,208c1.82,1.53,1.21,3.56-1,4l-3,6c-.41,2.26-.93,1.86-2,0-.15-4.13,3.47-7.09,4.01-11,1.86-.55,1.63.77,1.99,1Z"/>
  <path class="cls-85" d="M250,403l1.35,2.04c-.76,3.72-.54,7.37.65,10.96-.3.03-1.25,1.08-2,1-.39-.15-1.25.28-1.78-.22-.51-.51-.08-1.41-.22-1.78-.69-3.94-.97-8.07,0-12,.17-.31.69-.83,1-1,.9-.24.93.99,1,1Z"/>
  <path class="cls-68" d="M133,237c1.12-1.18,8.78-7.22,8.02-2.49-.35,2.19-1.72,2.01-2.02,2.49-1.19,1.04-3.59,2.1-5,1-1.47,1.28-2.04.7-1-1Z"/>
  <path class="cls-266" d="M191,358c2.53-3.85,3.68-5.5,7-9l-1,3.51-6,5.49Z"/>
  <path class="cls-48" d="M320,354l-5-3.5-4-5.5c4.55,3.7,5.34,4.49,9,9Z"/>
  <path class="cls-216" d="M268,338c-6.45,1.67-15.55,1.67-22,0,7.32.03,14.68.03,22,0Z"/>
  <path class="cls-141" d="M156,215c-1.27,3.08-2.7,5.98-4,9-.01-1.91-.94-2.61-1-3-.15-1.07-.98-2.49-1-3,.58-.13,1.68.2,2,0,.51-2.32,1.51-3.65,3-4,1.04-1.44,1.38-1.1,1,1Z"/>
  <path class="cls-117" d="M381,238c1.15,1.49.69,2.06-1,1-1.66-.17-3.32-.83-5-2-.21-.38-2.36-.9-2.02-2.49-.52-3.17,3.68-.83,4.98.04,1.54,1.03,2.01,2.28,3.04,3.45Z"/>
  <path class="cls-6" d="M325,399c.02-.61-1.17-1.99-.11-3.34,1.08-.98,2.7-1.11,4.11-1.66,2.46,3.9,0,5.53-4,5Z"/>
  <path class="cls-116" d="M263,431l.99,6.01c4.66.03,9.35-.06,14.01,0l-15.01,1.01c-.05-2.33.08-4.68,0-7.01Z"/>
  <path class="cls-250" d="M233,175c-4.61,2.86-13.74-.86-18,2l-1-1c.81-.4,1.62-1.38,3-2,4.53,2,10.85.79,16,1Z"/>
  <path class="cls-61" d="M192,389c-.16.58-1.12,3.11-1.49,2.99-1.15-1.7-7.87-2.9-5.51-5.99,2.16,1.14,4.61,2.37,7,3Z"/>
  <path class="cls-12" d="M249,345c6.3-.27,12.69.19,19,0,.09,1.21-1.54,1.46-2,1.99l-17-2Z"/>
  <path class="cls-51" d="M329,227c1.14,1.26.47,1.59-2,1-3.14-1.31-5.42-2.84-8-4l2-1c2.71,1.27,5.26,2.74,8,4Z"/>
  <path class="cls-158" d="M310,433c1.37-.13,8.69-2.36,8.99-2v2.99c-1.65.02-3.33.01-4.99,0-1.32,0-3.31.48-4-1Z"/>
  <path class="cls-183" d="M328,387c2.8,1.79-4.23,5.54-4.99,5-.21-1.36-.69-2.66-1.01-4,1.34,1.13,4.41-.24,6-1Z"/>
  <path class="cls-257" d="M189,349c-1.33,1.57-5.56,8.97-7,9-2.98-2.32,2.61-11.33,6-10l1,1Z"/>
  <path class="cls-152" d="M329,227c2.45,1.13,6.46,1.76,8,3.99-4.28,1.06-6.95-1.72-10-2.99l2-1Z"/>
  <path class="cls-169" d="M278,384c.38.19.8.97,1,1,.52,2.76.52,5.43,0,8h-1c-.31-.03-1.76,1.39-1.99,1v-8c.14-.39-.29-1.25.21-1.78.51-.51,1.41-.08,1.78-.22Z"/>
  <path class="cls-234" d="M354,203c-.98.07-1.38-.39-2-1-1.05-2.1-1.39-3.76-1-5-.75-1.59-.59-1.94,1-1,2.44,3.37,5.2,2.74,2,7Z"/>
  <path class="cls-129" d="M142,278c-2.26-4.86-.43-11.57-1-17,1.86,3.14,1.05,12.66,1,17Z"/>
  <path class="cls-145" d="M243,444c-5.45-.07-12.16.9-17-1,5.46.11,12.14-.93,17,1Z"/>
  <path class="cls-164" d="M320,161c.87.28.86.62,0,1-2.46-1.45-5.91-3.93-8-5-.66-.29-.65-.63,0-1,3.78,1.91,4.96,3.12,8,5Z"/>
  <path class="cls-111" d="M246,199c.8.17,1.97,1.07,2,1.99-1.66-.02-3.34.06-5,0-1.33-.04-2.67.04-4,0,.55-2.35,4.94-2.43,7-1.99Z"/>
  <path class="cls-230" d="M336,361l-.98.5c4.86,1.98,2.86,4.2,2.98,4.5-.69-1.5-3.68-1.14-3.83-1.27-.48-.42-.7-1.94-1.17-2.73l1.1-1.94c1.15-.61,1.65.85,1.9.94Z"/>
  <path class="cls-1" d="M148,236c1.39-5.92,1.62-6.45,4-12,.02,3.44-2.32,8.91-4,12Z"/>
  <path class="cls-202" d="M242,181c.35.04.72-.08,1,0,1.13,1.33.47,1.66-2,1-3.01-.6-9.48-.06-13,0,3.33-1.48,10.23-1.47,14-1Z"/>
  <path class="cls-25" d="M363,218c-.29.84-.62.83-1,0,.23-2.38-1.09-4.04-2-6-.54-1.95-.21-2.62,1-2,1.11,1.83,2.62,3.39,2.85,5.82.17,1.76-.84,2.06-.85,2.18Z"/>
  <path class="cls-89" d="M308,154c1.42,1.06,1.08,1.4-1,1-2.25-1.05-4.7-2.06-7-3-1.33-1.35-.81-1.29,1-1,3.46,1.13,4.11,1.67,7,3Z"/>
  <path class="cls-78" d="M208,153c2.64-1.1,6.58-4.99,8-1.01-1.84.63-4.3,1.24-6,2.01l-2-1Z"/>
  <rect class="cls-263" x="257" y="423" width="1" height="15"/>
  <path class="cls-126" d="M156,215l-1-1c-1.58.18-.91-.92,0-2,.27-1.35.02-2.8,1-4,1.12.71,2.17,1.42,2.98,2.5-2.01,1.34-2.19,2.57-2.98,4.5Z"/>
  <path class="cls-196" d="M334,311l-.91,2.41.91.59c-.71.74-1.21,1.29-2,2-.99-2.84-1.85-1.01-2-1-3.97,2.7-5.19-2.6-1-2-.33-1.65,3.9-3.79,5-2Z"/>
  <path class="cls-247" d="M211,217c-2.07.77-4.73,2.07-7,3-1.09.18-1.43.1-1-1,1.72-.71,3.7-2.14,6-3l2,1Z"/>
  <path class="cls-239" d="M385,245l-.99,1c-.3-2.67-2.27-5.04-4.01-7,.43-.15.78-.6,1-1,3.06,3.46,2.51,2.83,4,7Z"/>
  <path class="cls-115" d="M199,167c.61,2.83-3.7,6-6,4l-1-1c1.97-1.25,3.57-2.62,6-4l1,1Z"/>
  <path class="cls-104" d="M338,181c-.16,1.24-.49,1.57-1,1-2.07,1.42-6.08-2.47-6-5-1.33-1.41-.77-1.92,1-1,2.12,1.64,4,3.22,6,5Z"/>
  <path class="cls-79" d="M265,149c-3.56,1.7-10.65,1.67-14,0,4.65-.03,9.35-.04,14,0Z"/>
  <path class="cls-276" d="M313,374c-1.6.84-.97,3.4-1,5l-.99-9.99c2.04.21,1.64,3.64,1.99,4.99Z"/>
  <path class="cls-26" d="M289,211c-.37-.2-5.99-.69-8-1l2-1c2.3.51,4.19,1.52,6,2Z"/>
  <path class="cls-116" d="M296,436c-3.33,1.85-8.89.98-13,1,3.33-1.85,8.89-.98,13-1Z"/>
  <path class="cls-222" d="M181,179c.88,2.12-3.07,5.21-5,4-1.42,1.33-2,.74-1-1,1.85-1.66,3.15-2.56,5-4l1,1Z"/>
  <path class="cls-131" d="M380,239c-1.27.45-2.23.02-3,2-.38-1.17-1.35-2.86-2-4,2.99-2.18,3.42.23,5,2Z"/>
  <path class="cls-140" d="M143,246c.86-2.65.89-4.42,4-5-.37,1.71-.11,3.54-1.51,5.08-1.1,1.23-1.83,0-2.49-.08Z"/>
  <path class="cls-5" d="M304,379c1.91-.23,2.67-1.89,4-1.5v4.5c-1.4-.69-2.46-.9-4-1v-2Z"/>
  <path class="cls-10" d="M278,379c.73.59,1.36,1.32,2,2-1.23.02-2.38.38-3.52.77l-1.47-4.77c.15-.21,2.45,1.56,2.99,2Z"/>
  <path class="cls-29" d="M352,196l-1,1c-2.19.76-5.89-4.05-4-6,.31-.41.64-.4,1,0,1.61,1.84,2.56,3.01,4,5Z"/>
  <path class="cls-227" d="M248,415c-1.38-3.67-1.91-8.6,0-12v12Z"/>
  <path class="cls-120" d="M205,364c-.95,2.68-.38,5.83-2,8-.05-1.09.31-2.52-1-3,.53-2.16,1.64-3.71,2-5h1Z"/>
  <path class="cls-224" d="M185,229c-2.59,1.08-4.54,2.77-8,1.99.71-1.79,4.17-2.14,6-2.99l2,1Z"/>
  <path class="cls-264" d="M176,183c.91.23.89.57,0,1-1.2.97-2.96,1.97-4,3l-1-1c1.46-1.5,2.33-2.5,4-4,.19.38.95.78,1,1Z"/>
  <path class="cls-46" d="M217,434c-.42.39-.66,1.06-1.46,1.01-2.18.09-4.36-.02-6.54-.01-1,0-2.01.05-3,0,2.71-2.17,7.53-.53,11-1Z"/>
  <path class="cls-44" d="M362,218h1c-.13,1.22-1.04.66,0,3-.94.31-.96,1.14-1,2-1.8-.81-1.43-2.89-2-4v-2s2,1,2,1Z"/>
  <path class="cls-55" d="M139,237c-.58.93-1.66,2.11-2,3l-3-1c-.9-.1-.85-.45,0-1,1.65-1.33,3.07-2.64,5-1Z"/>
  <path class="cls-84" d="M304,452c-2.71,2.17-7.53.53-11,1,3.25-.21,7.49-.66,11-1Z"/>
  <path class="cls-229" d="M294,213v1c-4.3-1.53-4.18-2.55-5-3,2.5.66,3.87,1.66,5,2Z"/>
  <path class="cls-116" d="M308,433c-2.79,2.32-6.93.89-10,0,3.31-.16,6.7.24,10,0Z"/>
  <path class="cls-244" d="M291,185c-.33.04-.67-.02-1,0-2.96.21-6.03-.14-8.99-.01h9.99Z"/>
  <path class="cls-243" d="M323,162c1.63,1.03,4.47,1.38,3.99,3.99-2.18.42-3.34-2.03-4.99-2.99-1.21-1.22-.66-1.28,1-1Z"/>
  <path class="cls-118" d="M343,186v1c-2.77,1.37-7.64-3.54-5-6,2.05,1.83,3.21,3.2,5,5Z"/>
  <path class="cls-245" d="M358,208c.33-.2.15-1.55,1.99-.99.12,1.05.47,2.09,1.01,2.99l-1,2c-.62-1.35-1.37-2.65-2-4Z"/>
  <path class="cls-233" d="M301,151l-1,1c-1.69-.69-3.12-1.23-5.01-1.01v-1.99c2.23-.11,4.19,1.4,6.01,2Z"/>
  <path class="cls-231" d="M312,156v1c-1.29-.66-3.36-1.23-5-2l1-1c1.46.68,2.6,1.29,4,2Z"/>
  <path class="cls-215" d="M191,164c-.89.57-2.14,2.92-3.99,3v-1.49c.69-1.21,2.1-1.71,2.99-2.51l1,1Z"/>
  <path class="cls-148" d="M134,238c-.03.33.02.67,0,1l-3.02,4-.98-1c1.11-2.19,1.02-2.92,3-5,.2.35,1.01.87,1,1Z"/>
  <path class="cls-258" d="M348,191h-1c-2.49,1.28-4.98-1.56-4-4v-1c1.77,1.79,3.17,2.91,5,5Z"/>
  <path class="cls-32" d="M222,443c-3.5-.17-6.1-.7-9-1,2.82.38,6.95-1.08,9,1Z"/>
  <path class="cls-162" d="M332,176l-1,1c-1.5.45-4.34-1.39-4-3l1-1c1.51,1.06,2.57,1.9,4,3Z"/>
  <path class="cls-92" d="M257.99,397.99c-2.31-1.39-.39-6.68-.98-8.99,2.3,1.31.4,6.68.98,8.99Z"/>
  <path class="cls-123" d="M261,166c-2.63-.08-5.37-.1-8,0,1.54-1.67,6.42-1.68,8,0Z"/>
  <path class="cls-159" d="M301,176c-.65-.15-1.14.45-1,1l-5-2c1.1-.05,2.52.31,3-1,1.39.62,2.17,1.58,3,2Z"/>
  <path class="cls-191" d="M307,396c-1.8,1.98-5.41.73-8,1,.07-.65.61-.72,1-1h7Z"/>
  <path class="cls-15" d="M273,182c-.81.16-3.6,1.91-4,3,0-.07-.86-.59-1-1,1.03-1.02,1.09-2.11,3-3l2,1Z"/>
  <path class="cls-3" d="M216,480c.87.28.86.62,0,1-2.68-.04-5.84.72-8-1,2.63.19,5.36-.05,8,0Z"/>
  <path class="cls-64" d="M246,184v1c-1.29-.55-4-2.8-5-3l2-1c1.82.51,2.11,2.19,3,3Z"/>
  <path class="cls-37" d="M372,249h-1c.04-.66-.05-1.34,0-2,.03-.34-.07-.71,0-1-.13-1.11.03-2.45,1-3,1.37,4.01.56,2.69,0,6Z"/>
  <path class="cls-22" d="M231,480c-1.66,1.79-5.49.97-8,1,1.71-1.88,5.46-.85,8-1Z"/>
  <path class="cls-165" d="M250,357l-1,1c-.54-1.23-2.83-2.54-1.99-5,1.93.42,2.12,2.75,2.99,4Z"/>
  <path class="cls-113" d="M277,198c-2.73.79-4.72,1.55-8,1,2.87-1.49,4.77-1.07,8-1Z"/>
  <path class="cls-216" d="M243,338c-2.19-.02-5.64.74-7-1,2.21.08,5.61-.78,7,1Z"/>
  <path class="cls-216" d="M279,337c-1.36,1.74-4.81.97-7,1v-1c2.32-.07,4.68.1,7,0Z"/>
  <path class="cls-123" d="M273,167c-2.19-.24-5.58.9-7-1,3.08.2,4.46.58,7,1Z"/>
  <path class="cls-145" d="M209,452c-2.19-.03-5.64.74-7-1,2.2.05,5.62-.76,7,1Z"/>
  <path class="cls-157" d="M182,237c-3.31,1.08-4.5.48-7,1v-1c2.31.15,4.68-.1,7,0Z"/>
  <path class="cls-61" d="M182,384l-.02,2.99-3.31-.15c-.45-.17-.47-.67-.67-.85l2.93-.09.08-2.91.99,1.01Z"/>
  <path class="cls-154" d="M372,243c.73,1.43-.96,2.85-1,3-1.17-1.59-.59-3.26,0-5,.56.75.71,1.14,1,2Z"/>
  <path class="cls-23" d="M320,474v-6c.38,2.34,2.22,2.15,0,6Z"/>
  <path class="cls-235" d="M203,219l1,1c-1.04.43-2.13.64-3,1l-1-1c1.05-.45,2.12-.63,3-1Z"/>
  <path class="cls-116" d="M305,435c-1.09,1.68-4.11.97-6,1,1.09-1.68,4.11-.97,6-1Z"/>
  <path class="cls-240" d="M220,149.01c-.91,2.43-2.45,2.67-3.99.49l3.99-.49Z"/>
  <path class="cls-49" d="M323,162l-1,1c-.64-.37-1.36-.62-2-1v-1c.3.19,1.63.14,3,1Z"/>
  <rect class="cls-242" x="192.01" y="458" width=".98" height="4.99"/>
  <path class="cls-32" d="M199,451c-2.62-.17-2.77-.35-5-1,1.6.06,4.15-.62,5,1Z"/>
  <path class="cls-19" d="M379,368c-1.58-.15-4.14.69-5-1,1.6.07,4.15-.62,5,1Z"/>
  <path class="cls-201" d="M265,371.99l1.49-2.99c1.75,1.41,1.76,1.58-.01,2.99h-1.48Z"/>
  <path class="cls-19" d="M404,367c-1.46,1.53-3.28.83-5,1,.86-1.67,3.41-.88,5-1Z"/>
  <path class="cls-74" d="M206,428c-1.76-.05-3.55.47-5-1,1.56.19,4.14-.72,5,1Z"/>
  <path class="cls-220" d="M376,95c.02.65.06,1.36,0,2l-1-1c.28-1.06-.2-2.77.01-3.99h.98c.05.99-.02,2,.01,2.99Z"/>
  <path class="cls-204" d="M249,208c-.86,1.68-3.42.86-5,1v-1h5Z"/>
  <path class="cls-16" d="M182,325c-.96-.25-3.76-.08-5,0,.66-1.58,4.34-1.58,5,0Z"/>
  <path class="cls-113" d="M276,202c-1.73-.32-3.32-.67-5-1,1.6.06,4.15-.62,5,1Z"/>
  <path class="cls-22" d="M221,481c-1.67.01-3.34.02-5,0v-1c1.6.03,4.16-.6,5,1Z"/>
  <path class="cls-74" d="M213,428c-1.25.37-3.5,2.53-5,0,1.67-.01,3.33,0,5,0Z"/>
  <path class="cls-157" d="M320,234c7.23,3.39,11.95,7.02,21.06,4.43,1.31.88,2.91,9.57,3.29,11.74.33,1.89,1.89,3.24-1.34,2.84-56.08-24.57-117.4-26.15-173,1-.96-3.06.61-8.93,1.7-11.82.71-1.88.67-1.99,2.3-3.18,10.87,1.63,18.78-4.98,28-9,47.52-20.74,72.1-17.53,118,4Z"/>
  <path class="cls-216" d="M327,312c1.76-.45,2.43-.12,2,1l-1,1.99c.66,0,1.33.04,2,.01-15.07,14.7-38.48,19.47-59,21-22.52,1.68-47.85-.26-69-9-2.9-1.2-10.63-5.15-13-7-1.14-.88-3.03-1.91-3.01-3.49,1.59-.52,2.09-1.77,3.01-2.51,32.74,20.87,78.7,22.82,114.96,10.46,1.81-.62,23.67-9.69,22.04-11.45-1.33.28-2.06-.59-3-1.01.91-2.74,3.22-2.93,4,0Z"/>
  <path class="cls-17" d="M200,293c-3.31.84-7.9-5.64-5-8-1.15-6.04,1.39-16.91,8.58-17.96,18.15-2.65,16.18,34.15-3.58,25.96Z"/>
  <path class="cls-106" d="M319,285c.57,3.1-2.67,6.32-5,8-19.38,8.13-21.85-28.63-3.58-25.96,7.19,1.05,9.73,11.92,8.58,17.96Z"/>
  <path class="cls-62" d="M319,289c.77-1.74,2.22-1.45,3.62-.7l.5-1.31c6.99-3.79,16.89,3.72,14.88,11.01.66,4.55-2.61,8.28-6,11,.86,1.85-3.27,3.5-5,3-1.12-.25-2.76.17-4,0-6.45-2.87-12.92-9.52-9-17,.65-2.39,2.71-5.78,5-6Z"/>
  <path class="cls-193" d="M175,294c1.28-4.4,2.96-6.38,7.27-8.23l12.73-.77c.43,2.27,3.63,5.97,5,8-.29,2.93,1.46,5.06,1.09,8.55-.02.2-1.6,2.58-2.09,3.45-6.59,6.88-19.47,4.38-20.99-5.86l-2.01-2.14c-.58-.2-.91-.87-1-2-.88-.29-.86-.62,0-1Z"/>
  <path class="cls-31" d="M261.01,297.02l2.02,3.51c1.58,1.41,6.28-1.82,6.97.99.98,3.99-4.15,5.03-7.29,4.29-1.99-.47-3.48-2.72-5.21-2.78-2.53-.08-7.7,6.06-12.25,1.72-1.16-1.82-1.97-3.4.29-4.69,3.22,1.34,6.06,1.21,8.43-1.56l-7.86-7.15,1.43-2.33c3.6-.7,6.31,4.51,9.1,4.77,3.52.33,7.16-5.47,9.83-4.79,5.06,1.3-2.89,8.5-5.48,8.02Z"/>
  <path class="cls-223" d="M176,297l4-1.99c-1.88,4.39.3,8.81,3.68,11.85,5.2-1.86,11.25,1.78,15.33-1.86-3.64,6.5-3.84,3.92-8,7-.98.08-2.04-.12-3,0-6.94-.81-13.44-8.28-12-15Z"/>
  <path class="cls-27" d="M340,295c1.98.5,1.95,1.4,0,2-.11.94-.44,1.27-1,1-.28.87-.62.86-1,0-.1-2.41-3.92-5.85-3.01-9l-6.99.99,1-2.98-3.85.14-1.16,3.86-4.99-2c-1.08-.77-.3-2.09,1-2,3.93-3.87,12.41-2.65,16.01,1.49.56.64,3.84,5.98,3.99,6.51Z"/>
  <path class="cls-272" d="M340,302c-1.4-.76-.62-3.46,0-5-.06-.65.14-1.47,0-2,2.68-5.28,3.88-11.23,5-17,2.03,7.32-.61,17.86-5,24Z"/>
  <path class="cls-33" d="M173,292c1.94,3.03.61,6.82-2,3-1.69-5.01-4.13-13.04-2-18,.68,3.53,2.75,11.8,4,15Z"/>
  <path class="cls-14" d="M175,294c-.08.29.06.66,0,1,1.15,3.6,1.15,6.27,0,8-1.98-3.3-2.78-4.38-4-8,.37-.16,1.31.3,1.9-.08l.1-2.92c.23.59,1.52,1.39,2,2Z"/>
  <path class="cls-56" d="M320,287c-.41.4-.57,1.5-1,2-1.31,1.54-4.22,4.52-5,6,.12-.61-.18-1.56,0-2,.85-2.05,4.49-5.31,5-8l1,2Z"/>
  <path class="cls-97" d="M177,170l-4.5,3.98c-.82.02-7.66-12.25-8.5-13.98-8.83-18.12-16.16-39.04-20-59-1.04-5.4-2.65-10.94-3.04-16.46s-.47-13.3,1.04-18.54c4.17,24.92,13.3,50.27,22.82,73.68,3.1,7.61,10.98,20.66,12.79,27.38.59,2.19-.49,2.26-.61,2.95Z"/>
  <path class="cls-16" d="M162,332c-.6-2.56,5.3-3.05,7.01-3.49,3.71-.96,7.45-1.97,11.29-2.32,5.93,3.77,11.52,8.75,18.71,9.82-.03.74-.93,1.49-1.01,1.99-3.76,2.87-7.07,6.3-10,10s-4.38,5.64-6,10c-10.98-5.45-14.14-16.89-20-26Z"/>
  <path class="cls-260" d="M279,155c9.94.8,21.1,5.53,30.33,10.06,4.87,2.38,20.61,10.56,22.91,14.3.4.65-1.11,1.35-2.23.64-27.36-19.66-59.81-28.54-93-22-1.82.36-3.04.53-5,1-5.46,2.65-11.96,4.74-18,5-6.44.44-.02-2.9,4.72-4.91,18.05-7.62,41.74-10.14,60.28-4.09Z"/>
  <path class="cls-28" d="M279,153c12.58,2.71,23.73,6.81,35,13,3.73,2.05,9.45,5.6,13,8,1.26.85,2.74,2.04,4,3,2.07,1.57,3.79,3.61,6,5,.75,1.96-.04,2.75-2,2-1.57-1.3-3.36-2.82-5-4,2.11-.59-1.18-2.51-1.68-2.82-17.99-11.33-29.25-15.6-49.32-22.18-5.67-1.09-6.39-2.78,0-2Z"/>
  <path class="cls-161" d="M343,187c1.27,1.38,3.15,2.98,4,4,.72.86,3.13,4.67,4,6,1.15,1.76,2.78,2.87,1,5-6.07-5.96-10.14-12.29-17-18,.66-.68,1.32-1.35,2-2,.06-.05-.11-1.18,1-1,.1,3.14,3.43,4.29,5,6Z"/>
  <path class="cls-133" d="M384,277c-3.02,6.18-4.31,11.65-10.51,15.99-2.75.24-.81-.6-.74-1.73.23-3.46.25-6.81.25-10.26,3.95-1.08,7.3-2.35,10.51-4.98l.49.98Z"/>
  <path class="cls-84" d="M320.86,447.86c-19.29,3.93-39.18,4.42-58.87,4.15v-6.01c19.5-1.74,39.31-.8,58.52-4.98l.34,6.84Z"/>
  <path class="cls-75" d="M248,151c6.32-.36,14.71-.42,21,0,3.69.25,6.53,1.25,10,2l-4.01.5c0,.21,3.27,1.26,4.01,1.5-22.83-4.68-46.35-1.87-67,8.5l2,.5c.87.28.86.62,0,1-.61-.04-1.9.5-2,1-5.4,3.57-11.07,6.23-17,8-1.21.67-2.18.91-4,2-5.24,3.13-10.15,6.33-15,10-.03-.66.04-1.34,0-2-.02-.33.06-.7,0-1,2.13-.7,3.56-2.93,5-4,3.6-2.66,8.17-5.6,12-8,1.96-1.23,4.29-3.03,6-4,8.8-4.97,21.26-10.39,31-13,6.16-1.65,11.59-2.64,18-3Z"/>
  <path class="cls-265" d="M212,166c-.01.05.83-.15.98.5-.27.68-11,6.44-12.75,7.23-1.38.62-4.15,2.23-5.23.28,5.38-2.96,10.79-7,17-8Z"/>
  <path class="cls-265" d="M232,159l2.49.99c-4.45,1.15-8.87,2.44-13.29,3.7s-1.95,1.62-7.2,1.31v-1c5.99-1.89,11.87-3.53,18-5Z"/>
  <path class="cls-277" d="M279,385c1.19.2,2.72-.31,3.95.5,4.35,3.4.92,7.97-3.95,7.5-2.61-2.79-2.65-5.17,0-8Z"/>
  <path class="cls-77" d="M301.7,385.16c4.99-1.44,5.51,4.89,3.37,6.4-5.19,3.65-8.99-4.79-3.37-6.4Z"/>
  <polygon class="cls-130" points="297 387.01 295.34 390.84 287 390.99 288.66 387.16 297 387.01"/>
  <path class="cls-11" d="M316,462c-.04.33.03.67,0,1,1.88,3.68,2.62,11.06-3,11-2.64.53-4.66,1.49-8,2-4.7.78-9.36.78-14,0-.9,0-2.16.83-3.45.8-5.79-.15-14.17-.75-17.55-5.8.79-2.43-2.43-6.91.65-7.85,12.98-1.2,31.07.64,43.35-3.15,1.73-.92,2.88.34,2,2Z"/>
  <path class="cls-100" d="M316,463h1.97c-.05,4.26,1.99,7.87.03,12-.32.07-.7-.09-1,0-.55-1.32-2.88-1.22-4-1,3.65-3.59,2.57-6.75,3-11Z"/>
  <path class="cls-100" d="M314,460c.54-.17,1.32-1.69,2.99-1,.69,1.56-.95,2.62-.99,3l-2-2Z"/>
  <path class="cls-138" d="M245,189v2c-2.76.03-6.21.57-8-2,2.25-.49,5.47-.41,8,0Z"/>
  <path class="cls-271" d="M233.5,382c.62-.17,1.4-2.07,2.49-2l-.19,10.3c-1.3,4.44-18.92,3.05-23,1.61-.43-.15-2.04-2.49-3.87-2.49l.06-7.42c6.52-1.14,18.79,1.54,24.5,0Z"/>
  <path class="cls-271" d="M234,394c-4.8,2.29-13.95.92-19,0h19Z"/>
  <path class="cls-32" d="M252,446v6.01c-8.16-.05-16.36.03-24.54.04-2.72,0-5.33-1.03-8.46-1.04l-22.32-1.98-3.68-7.02c10.22.16,20.32,2.31,30.51,2.98,7.08.47,22.92-1.35,28.49,1.01Z"/>
  <path class="cls-226" d="M214,462c2.33.03,4.67.03,7,0,2.31,1.85,6.85.96,10,1,5.02.06,10.03-.44,14.89,1.1,2.16,12.55-11.96,13.08-20.89,12.9-4.85,1.76-14.66,1.19-19.87-.64-.18-.06-.18-.64-.13-1.36-6.82,1.53-10.01-10.16-6-14,5.16-.25,9.79.94,15,1Z"/>
  <path class="cls-3" d="M203,477c-1.33-.44-2.61-.09-4.36-1.11-5.06-2.98-1.96-11.88-1.57-16.82l3.93-.06c.41,1.41-1.73,1.08-2,1.99-1.5,5.05,1.22,11.65,6,14-.16,1.21-.81,1.89-2,2Z"/>
  <path class="cls-237" d="M205,475c2.16,1.06,10.53,1.82,13.49,2.01,2.68.17,2.61-.87,6.51,0,1.69.37,3.78,1.69,6.4,1.13l.6.87c-10.07-.25-19.3,1.18-29-2v-2s2,0,2,0Z"/>
  <path class="cls-116" d="M289,419l-5,1.01,5.02,2.67c1.1,4.61.11,7.83-1.12,12.22-3.87-.8-9.26,1.12-12.47.99-1.69-.07-2.53-1.64-3.43-1.89-3.37.67-5.7.34-7-1-.05-1.66,0-3.34,0-5-.1-.85,4.95-2.48,5.72-2.55.11-.01-.7,1.84-.72-.45,1.32-.38,3.91-4.22,5.71-4.79,3.26-1.03,9.65-.92,13.29-1.21Z"/>
  <path class="cls-72" d="M270,425l1.99.49c-1.75,2.52-4.05,2.86-6.99,2.51v-3c1.37,0,3.99.29,5,0Z"/>
  <path class="cls-72" d="M272,434l-7,2c-.04-1,.03-2,0-3,2.43-.25,4.71.35,7,1Z"/>
  <path class="cls-74" d="M218,419.01l-2.67,6.9c-2.8.89-4.16-1.9-5.83-1.9-1.45,0-2.52,2.11-5.83,1.96-1.66-.08-6.02-1.07-6.54-2.59l-.12-7.37,21,3Z"/>
  <path class="cls-100" d="M305,476c-4.25.65-9.99,2.47-14,0,4.66-.02,9.34.02,14,0Z"/>
  <path class="cls-81" d="M340,302c-.54,2.75-3.56,7.45-6,9-1,.64-3.77.86-5,2-.86.19-1.66-.92-2-1,1.85-.69,3.35-1.99,5-3,3.6-2.9,5.93-6.56,7-11,.1-.43.59-.81,1-1,.12,1.26.22,3.88,0,5Z"/>
  <path class="cls-95" d="M303,368c-.1.61.17,1.61,0,2-.31.47-.64.46-1,0-7.11-.35-14.11-.68-21-1,0-.33-.08-.85,0-1,7.06-.69,14.97-1.01,22,0Z"/>
  <path class="cls-90" d="M302,370h1c-.43.99-.39.84-1.45,1.02-3.32.58-10.78.14-14.55-.02-1.79-.08-3.61.23-5.4-.11l-.6-.89c6.61-.83,14.08-.81,21,0Z"/>
  <path class="cls-144" d="M300,367c.75.07,1.7-.21,2.4.1l.6.9h-22c.26-.45.46-.85,1-1,5.82.4,12.27-.55,18,0Z"/>
  <path class="cls-151" d="M250,403c2.72.41,14.04-.62,14.89.11.84,4.29,3.2,10.52-1.89,12.89-2.47-.38-8.42-.29-11,0-4.36-1.79-3.72-9.35-2-13Z"/>
  <path class="cls-252" d="M201.84,403.16c.54.92.01,2.67.15,3.84l-4.56-.93c-3.06-5.05,3.34-4.72,4.4-2.9Z"/>
  <path class="cls-180" d="M252,350c-.22-.82-1.51-1.52-.99-3h12.48s-1.49,3-1.49,3c-3.29.07-6.46.8-10,0Z"/>
  <path class="cls-147" d="M176,297c1.9,7.1,5.4,11.6,12,15-3.21.42-5.01.03-8-2-2.59-1.76-3.48-4.47-5-7-.74-3.43-.52-4.92,0-8,.97.37.79,1.23,1,2Z"/>
  <path class="cls-20" d="M302,370h-21c0-.33,0-.67,0-1,6.75.6,14.59-1.28,21,1Z"/>
  <path class="cls-155" d="M155,214c-.14.42-2.48,3.68-3,4-.03-2.39.68-4.93,3-6-.13.62.17,1.5,0,2Z"/>
  <path class="cls-190" d="M332,309c1.82-2.5,6.13-7.95,6-11h1c-1.84,7.54-.2,6.83-7,11Z"/>
  <path class="cls-43" d="M253,406l8.43-.4c3.32,5.62.51,7.75-8.43,6.4v-6Z"/>
  <path class="cls-195" d="M253,412l9.02-.57v-5.43s-9.02,0-9.02,0l8.36-.86c2.29.77,1.81,4.14,1.5,6.22l-1.5,1.49-8.36-.86Z"/>
</svg>